<svg width="27" height="35" viewBox="0 0 27 35" fill="none" xmlns="http://www.w3.org/2000/svg">
<path d="M22.2381 19.5562C21.0919 21.8794 19.5388 24.1938 17.9506 26.2719C16.4425 28.2297 14.8317 30.1063 13.125 31.8937C11.4183 30.1063 9.80755 28.2297 8.29938 26.2719C6.71125 24.1938 5.15812 21.8794 4.01188 19.5562C2.8525 17.2091 2.1875 15.0106 2.1875 13.125C2.1875 10.2242 3.33984 7.4422 5.39102 5.39102C7.4422 3.33984 10.2242 2.1875 13.125 2.1875C16.0258 2.1875 18.8078 3.33984 20.859 5.39102C22.9102 7.4422 24.0625 10.2242 24.0625 13.125C24.0625 15.0106 23.3953 17.2091 22.2381 19.5562ZM13.125 35C13.125 35 26.25 22.5619 26.25 13.125C26.25 9.64403 24.8672 6.30564 22.4058 3.84422C19.9444 1.38281 16.606 0 13.125 0C9.64403 0 6.30564 1.38281 3.84422 3.84422C1.38281 6.30564 5.18704e-08 9.64403 0 13.125C0 22.5619 13.125 35 13.125 35Z" fill="#FF6A5D"/>
<path d="M13.125 17.5C11.9647 17.5 10.8519 17.0391 10.0314 16.2186C9.21094 15.3981 8.75 14.2853 8.75 13.125C8.75 11.9647 9.21094 10.8519 10.0314 10.0314C10.8519 9.21094 11.9647 8.75 13.125 8.75C14.2853 8.75 15.3981 9.21094 16.2186 10.0314C17.0391 10.8519 17.5 11.9647 17.5 13.125C17.5 14.2853 17.0391 15.3981 16.2186 16.2186C15.3981 17.0391 14.2853 17.5 13.125 17.5ZM13.125 19.6875C14.8655 19.6875 16.5347 18.9961 17.7654 17.7654C18.9961 16.5347 19.6875 14.8655 19.6875 13.125C19.6875 11.3845 18.9961 9.71532 17.7654 8.48461C16.5347 7.2539 14.8655 6.5625 13.125 6.5625C11.3845 6.5625 9.71532 7.2539 8.48461 8.48461C7.2539 9.71532 6.5625 11.3845 6.5625 13.125C6.5625 14.8655 7.2539 16.5347 8.48461 17.7654C9.71532 18.9961 11.3845 19.6875 13.125 19.6875Z" fill="#FF6A5D"/>
</svg>
