<svg width="190" height="190" viewBox="0 0 190 190" fill="none" xmlns="http://www.w3.org/2000/svg">
<path d="M110.246 1.91097C113.359 4.11633 115.558 6.83036 116.273 10.5981C116.607 14.4562 115.981 17.8011 113.46 20.8647C110.309 24.0596 107.972 25.2988 103.442 25.381C99.5036 25.3495 96.9561 24.2482 94.093 21.6252C92.3261 19.7599 91.1596 17.925 90.9621 15.3365C86.925 16.3716 84.3863 17.7316 82.1235 21.2596C80.3183 26.5825 82.2197 33.8781 82.8077 39.2925C82.8926 40.085 82.9771 40.8775 83.0615 41.67C83.3265 44.1573 83.5946 46.6444 83.8649 49.1312C84.1411 51.6727 84.4122 54.2147 84.6809 56.7571C84.9139 58.9608 85.1499 61.1642 85.3882 63.3674C85.5296 64.6739 85.6696 65.9806 85.8074 67.2875C87.5328 83.5955 91.3654 100.269 104.878 111.261C105.149 111.471 105.149 111.471 105.425 111.685C105.44 111.242 105.455 110.8 105.471 110.344C105.497 109.763 105.524 109.181 105.551 108.6C105.56 108.308 105.569 108.017 105.578 107.717C105.687 105.567 105.687 105.567 106.37 104.589C107.633 103.813 108.382 103.931 109.845 104.182C110.836 104.878 111.735 105.655 112.66 106.434C119.31 111.451 128.197 113.422 136.444 112.687C143.379 111.719 149.69 109.372 155.091 104.887C156.047 104.182 156.047 104.182 157.503 103.985C158.859 104.182 158.859 104.182 159.529 104.793C160.255 106.106 160.291 107.36 160.34 108.822C160.354 109.097 160.368 109.373 160.382 109.656C160.415 110.332 160.441 111.009 160.466 111.685C170.769 102.173 176.938 90.642 178.718 76.7987C178.769 76.4057 178.82 76.0126 178.873 75.6076C179.489 70.8103 180.006 66.0025 180.521 61.1939C180.627 60.2061 180.733 59.2184 180.84 58.2306C181.06 56.1806 181.28 54.1306 181.499 52.0804C181.751 49.7207 182.006 47.3612 182.261 45.0018C182.509 42.7092 182.755 40.4163 183.001 38.1233C183.104 37.1563 183.209 36.1894 183.313 35.2225C183.459 33.875 183.603 32.5272 183.746 31.1793C183.811 30.5885 183.811 30.5885 183.877 29.9858C184.304 25.9093 184.612 22.5321 182.236 18.9891C180.107 16.8369 177.812 16.0758 174.929 15.3365C174.861 15.5656 174.792 15.7947 174.722 16.0307C173.564 19.6977 171.603 22.5218 168.14 24.4479C164.627 25.9931 161.044 26.008 157.421 24.8304C154.011 23.387 151.331 20.5994 149.912 17.2399C149.058 14.0008 149.051 10.0133 150.689 7.02731C152.987 3.71765 155.575 1.1538 159.662 0.331496C163.948 -0.106098 167.624 0.677778 171.073 3.27451C172.959 5.06941 174.278 7.31354 174.929 9.80837C175.226 9.83789 175.523 9.86741 175.828 9.89783C179.959 10.424 183.482 11.8716 186.352 14.917C191.994 22.2179 189.648 31.6708 188.722 40.1671C188.638 40.954 188.554 41.741 188.471 42.528C188.208 44.9963 187.942 47.4641 187.673 49.9316C187.399 52.4457 187.131 54.9603 186.867 57.4754C186.636 59.6625 186.402 61.8492 186.165 64.0356C186.025 65.3291 185.887 66.6228 185.751 67.9168C185.213 73.0247 184.583 78.0815 183.566 83.1213C183.447 83.7123 183.447 83.7123 183.326 84.3153C181.34 93.6566 176.762 102.447 170.51 109.71C170.238 110.031 169.966 110.352 169.686 110.682C167 113.742 163.893 116.547 160.466 118.792C160.287 119.76 160.287 119.76 160.317 120.887C160.31 121.305 160.303 121.723 160.296 122.153C160.292 123.036 160.29 123.918 160.289 124.8C160.278 125.429 160.278 125.429 160.267 126.07C160.266 126.453 160.265 126.837 160.264 127.233C160.007 128.565 159.518 129.008 158.457 129.849C157.444 130.354 156.47 130.794 155.419 131.206C155.124 131.324 154.829 131.441 154.526 131.563C150.96 132.937 146.646 134.587 142.789 134.587C142.795 134.974 142.801 135.36 142.808 135.758C142.83 137.195 142.843 138.631 142.855 140.068C142.861 140.689 142.869 141.31 142.88 141.931C142.894 142.825 142.901 143.719 142.906 144.613C142.913 144.89 142.919 145.167 142.925 145.452C142.926 146.606 142.83 147.522 142.372 148.589C141.169 149.517 139.951 149.366 138.495 149.296C138.213 149.289 137.931 149.282 137.64 149.274C136.946 149.256 136.251 149.228 135.557 149.197C135.56 149.449 135.562 149.701 135.565 149.96C135.592 152.599 135.61 155.239 135.623 157.879C135.629 158.861 135.637 159.844 135.648 160.827C135.663 162.246 135.669 163.665 135.675 165.085C135.681 165.518 135.687 165.951 135.694 166.398C135.695 172.394 133.752 178.496 129.449 182.894C124.887 187.047 119.301 189.381 113.059 189.622C106.795 189.38 101.08 187.066 96.5867 182.761C92.849 178.513 90.928 173.978 90.3924 168.436C89.8108 162.444 88.5061 158.039 83.6301 154.01C80.2802 151.58 76.4296 150.744 72.3365 150.696C72.0462 150.692 71.7559 150.688 71.4569 150.684C70.5026 150.672 69.5483 150.662 68.594 150.652C67.9304 150.644 67.2667 150.635 66.603 150.627C64.86 150.605 63.117 150.586 61.374 150.567C59.5939 150.547 57.8138 150.525 56.0337 150.503C52.5437 150.461 49.0537 150.421 45.5637 150.382C45.5673 150.632 45.5708 150.882 45.5745 151.139C45.6104 153.766 45.6344 156.393 45.652 159.02C45.66 159.997 45.6709 160.974 45.6849 161.952C45.8065 170.66 45.1984 177.205 38.9034 183.818C33.6446 188.778 27.8103 190.127 20.7396 189.991C14.7693 189.737 9.54237 186.885 5.49015 182.653C1.00583 177.322 -0.351157 171.509 0.0738984 164.744C0.676166 158.572 4.04623 153.59 8.72616 149.589C17.7447 142.865 29.8178 145.249 40.3409 145.249C40.3409 129.221 40.3409 113.193 40.3409 96.6797C38.4848 96.6797 36.6287 96.6797 34.7163 96.6797C33.1093 95.1002 33.1093 95.1002 32.9268 94.0872C32.9353 93.715 32.9437 93.3428 32.9523 92.9593C32.9575 92.5546 32.9627 92.15 32.968 91.733C32.9815 91.3131 32.995 90.8932 33.0088 90.4605C33.0161 90.0345 33.0233 89.6084 33.0308 89.1695C33.0497 88.1187 33.0762 87.0686 33.1093 86.0182C32.7556 85.919 32.4018 85.8197 32.0374 85.7174C27.3184 83.9938 24.0583 79.4894 22.0076 75.1547C19.5873 69.194 19.5786 63.2118 21.8601 57.1927C24.7303 51.377 28.9853 47.2136 35.2028 44.924C41.4812 42.8671 47.7272 43.3919 53.6742 46.2104C59.546 49.1611 62.9625 53.984 65.1493 59.9954C66.7169 65.5484 65.7754 71.7309 63.1907 76.7881C60.8199 80.8636 57.8661 83.8531 53.5988 86.0182C53.3337 86.0182 53.0685 86.0182 52.7953 86.0182C52.8037 86.2851 52.8121 86.5519 52.8208 86.8269C52.8543 88.038 52.8751 89.2491 52.8958 90.4605C52.9092 90.8804 52.9227 91.3004 52.9366 91.733C52.9417 92.1377 52.9469 92.5424 52.9523 92.9593C52.9607 93.3315 52.9691 93.7037 52.9778 94.0872C52.7953 95.1002 52.7953 95.1002 51.1883 96.6797C49.3322 96.6797 47.4761 96.6797 45.5637 96.6797C45.5637 112.707 45.5637 128.735 45.5637 145.249C55.6596 145.202 55.6596 145.202 65.7555 145.142C67.7229 145.137 67.7229 145.137 68.6484 145.136C69.2849 145.134 69.9215 145.13 70.5581 145.124C77.3859 145.062 83.8711 146.026 89.082 150.842C93.9803 156.104 95.6338 161.279 96.3105 168.262C96.8046 172.431 98.4511 176.907 101.718 179.789C106.32 182.891 110.735 184.042 116.273 183.551C120.729 182.609 124.468 180.055 127.12 176.443C129.651 172.309 129.978 168.104 130.06 163.388C130.068 162.981 130.076 162.573 130.085 162.153C130.111 160.862 130.135 159.571 130.158 158.279C130.176 157.4 130.193 156.52 130.211 155.64C130.254 153.493 130.295 151.345 130.334 149.197C129.913 149.211 129.492 149.225 129.058 149.239C128.504 149.25 127.95 149.261 127.396 149.271C126.98 149.286 126.98 149.286 126.556 149.301C125.431 149.318 124.528 149.311 123.52 148.791C122.86 147.56 122.956 146.316 122.985 144.96C122.987 144.664 122.988 144.368 122.99 144.062C122.997 143.117 123.012 142.171 123.027 141.226C123.033 140.585 123.039 139.943 123.044 139.302C123.057 137.73 123.078 136.159 123.103 134.587C122.358 134.502 122.358 134.502 121.598 134.415C120.454 134.274 119.359 134.108 118.25 133.791C117.84 133.675 117.84 133.675 117.422 133.556C117.142 133.473 116.862 133.39 116.574 133.304C116.278 133.217 115.983 133.13 115.678 133.04C113.132 132.273 110.622 131.417 108.238 130.244C107.796 130.062 107.355 129.88 106.901 129.693C105.827 128.664 105.827 128.664 105.683 127.676C105.688 126.406 105.742 125.144 105.802 123.876C105.95 120.406 105.95 120.406 104.429 117.444C103.347 116.596 102.146 115.946 100.937 115.289C99.6392 114.502 98.6043 113.466 97.5409 112.4C97.2174 112.078 97.2174 112.078 96.8873 111.749C90.8813 105.601 87.1041 98.2892 84.1323 90.3618C83.8837 89.712 83.8837 89.712 83.6301 89.0491C80.9139 81.2385 80.4817 72.508 79.6188 64.3544C79.5044 63.2893 79.3894 62.2244 79.2744 61.1594C79.0361 58.948 78.8001 56.7362 78.5656 54.5244C78.2957 51.9799 78.0222 49.4359 77.7466 46.892C77.4789 44.4195 77.2138 41.9468 76.9499 39.4739C76.8386 38.4315 76.7263 37.3892 76.6135 36.347C76.4565 34.8928 76.3025 33.4384 76.1493 31.9838C76.103 31.5602 76.0567 31.1365 76.009 30.7C75.3987 24.8217 75.4774 19.8067 79.3112 14.9417C81.895 12.3576 85.0097 10.4583 88.7415 10.1107C89.6313 10.1045 89.6313 10.1045 90.9621 10.2032C90.9787 9.88562 90.9953 9.56799 91.0123 9.24074C91.8961 5.70437 94.6194 2.99638 97.6821 1.08267C101.333 -0.61678 106.933 -0.296891 110.246 1.91097ZM97.6413 8.03146C96.1106 10.346 95.8085 12.184 96.1849 14.9417C97.066 17.1827 98.4553 18.5322 100.604 19.6801C102.763 20.3875 104.649 20.356 106.706 19.4333C108.843 18.2491 110.164 16.7525 110.849 14.4234C111.263 12.1238 110.615 10.2821 109.413 8.31064C108.214 6.7253 106.917 6.03255 105.024 5.4648C102.011 5.1358 99.7542 5.84545 97.6413 8.03146ZM156.699 7.9821C155.264 9.81893 154.634 11.338 154.72 13.7123C155.062 16.0702 156.17 17.6545 158.08 19.0878C160.185 20.324 162.09 20.5759 164.483 20.075C166.833 19.102 168.49 17.6969 169.469 15.3643C170.064 13.3132 169.939 11.6833 169.053 9.73433C167.939 7.77131 166.582 6.63093 164.458 5.73628C161.449 5.04412 158.788 5.67805 156.699 7.9821ZM31.1507 53.5402C27.8415 56.6336 25.8352 60.8386 25.4806 65.3153C25.4566 70.2204 27.3392 74.9349 30.8243 78.4663C31.8087 79.4653 31.8087 79.4653 33.1093 79.7003C33.1151 79.3778 33.121 79.0553 33.127 78.723C33.157 77.2552 33.1958 75.7878 33.2348 74.3202C33.2439 73.8127 33.253 73.3052 33.2623 72.7824C33.2765 72.2912 33.2908 71.8 33.3055 71.2939C33.316 70.8431 33.3265 70.3923 33.3373 69.9279C33.5995 67.9901 34.3347 66.3786 35.9216 65.1642C38.1191 63.5893 40.2054 63.8062 42.8267 63.7821C43.4393 63.7649 43.4393 63.7649 44.0642 63.7474C46.5983 63.7265 48.7745 63.8406 50.7865 65.485C52.972 67.9299 52.66 71.3063 52.6949 74.3696C52.7068 74.8826 52.7187 75.3957 52.731 75.9244C52.7592 77.183 52.7805 78.4414 52.7953 79.7003C56.191 78.1238 58.3123 74.7692 59.6252 71.408C61.093 66.9791 60.5374 62.1197 58.4199 57.9825C55.6123 53.6121 51.8097 50.6651 46.6999 49.3663C40.8402 48.2778 35.7325 49.8139 31.1507 53.5402ZM38.7339 69.4337C38.6962 70.1244 38.6867 70.8167 38.6883 71.5084C38.6883 71.9511 38.6883 72.3938 38.6883 72.8499C38.6904 73.3315 38.6925 73.8132 38.6946 74.3094C38.6952 74.7997 38.6958 75.2899 38.6964 75.795C38.6982 77.1005 38.7018 78.4059 38.7063 79.7114C38.7104 81.0427 38.7122 82.374 38.7142 83.7053C38.7187 86.319 38.7256 88.9327 38.7339 91.5464C41.6506 91.5464 44.5674 91.5464 47.5725 91.5464C47.5923 88.5314 47.6069 85.5164 47.6166 82.5013C47.6207 81.4752 47.6262 80.4491 47.6331 79.423C47.6428 77.9498 47.6474 76.4767 47.651 75.0035C47.6551 74.5432 47.6592 74.0829 47.6635 73.6087C47.6636 73.1819 47.6636 72.755 47.6637 72.3153C47.6664 71.751 47.6664 71.751 47.6691 71.1754C47.6385 70.12 47.6385 70.12 46.769 69.0388C45.9609 68.8686 45.9609 68.8686 45.0348 68.9093C44.5248 68.9123 44.5248 68.9123 44.0046 68.9154C43.649 68.9236 43.2935 68.9317 42.9272 68.9401C42.5701 68.9421 42.213 68.9442 41.8451 68.9463C40.1572 68.8206 40.1572 68.8206 38.7339 69.4337ZM111.05 112.08C111.05 116.51 111.05 120.94 111.05 125.505C115.269 127.243 115.269 127.243 119.587 128.541C119.911 128.623 120.236 128.704 120.57 128.789C129.128 130.867 137.812 130.696 146.329 128.541C146.775 128.429 146.775 128.429 147.229 128.315C149.914 127.595 152.213 126.582 154.841 125.505C154.841 121.075 154.841 116.644 154.841 112.08C153.689 112.633 152.538 113.187 151.351 113.758C141.232 118.512 130.554 119.367 119.813 116.127C117.042 115.156 114.454 113.816 111.853 112.474C111.588 112.344 111.323 112.214 111.05 112.08ZM128.325 135.377C128.325 138.244 128.325 141.11 128.325 144.064C131.242 144.064 134.159 144.064 137.164 144.064C137.164 141.197 137.164 138.331 137.164 135.377C134.247 135.377 131.331 135.377 128.325 135.377ZM9.42296 156.479C6.28595 160.341 4.95395 164.843 5.38814 169.731C6.21263 174.321 8.45765 178.718 12.389 181.469C16.8966 184.198 21.2447 185.485 26.5823 184.54C31.7122 183.143 35.391 180.394 38.1281 175.948C40.1319 172.361 40.4008 168.974 40.3801 164.958C40.3796 164.541 40.379 164.124 40.3784 163.694C40.3762 162.366 40.3711 161.038 40.366 159.711C40.364 158.808 40.3621 157.906 40.3605 157.004C40.3561 154.796 40.3494 152.589 40.3409 150.382C37.6828 150.352 35.0248 150.331 32.3666 150.317C31.4642 150.311 30.5618 150.303 29.6594 150.293C28.3549 150.278 27.0505 150.271 25.7459 150.266C25.3489 150.26 24.952 150.254 24.543 150.248C18.478 150.246 13.6201 152.15 9.42296 156.479Z" fill="#399BA4"/>
<path d="M139.622 59.41C143.025 61.4452 145.347 63.6924 146.785 67.4296C147.685 69.7003 149.301 70.6805 151.308 71.9634C154.672 74.147 156.389 77.1865 157.533 80.9403C158.009 85.6374 157.205 89.6493 154.142 93.3785C151.585 96.0909 148.434 97.8689 144.658 98.1194C141.307 98.2075 138.743 97.972 135.702 96.4547C134.061 95.6482 133.093 95.6067 131.315 96.062C130.602 96.3823 129.896 96.7187 129.197 97.0684C125.346 98.6848 121.045 98.6814 117.135 97.2157C112.971 95.2067 110.626 92.2756 108.836 88.1083C108.034 83.367 108.451 79.1075 111.304 75.1224C112.864 73.2334 114.518 71.7224 116.75 70.6561C118.472 69.7035 119.006 68.4183 119.752 66.6778C121.696 62.5466 123.822 60.5421 128.125 58.7487C131.494 57.6426 136.432 57.858 139.622 59.41ZM126.132 66.2114C125.113 67.5187 124.408 68.8261 123.764 70.3355C122.577 73.0045 121.258 74.3172 118.755 75.8097C116.291 77.2962 115.117 78.6569 114.02 81.2594C113.518 84.1749 113.812 86.6146 115.557 89.0627C117.63 91.508 119.578 92.7455 122.842 93.0671C124.912 93.0201 126.663 92.1683 128.524 91.3487C130.938 90.286 133.489 89.9982 136.056 90.7979C137.343 91.2837 138.583 91.8292 139.832 92.4043C142.553 93.3704 144.878 93.0216 147.503 91.898C149.502 90.7521 150.785 89.1077 151.826 87.1019C152.326 84.3094 152.495 81.6287 151.009 79.1099C149.546 77.203 147.701 75.8541 145.595 74.705C143.469 73.4551 142.668 71.4819 141.718 69.309C140.533 66.7055 138.737 64.9419 136.125 63.6829C132.35 62.9999 128.968 63.4955 126.132 66.2114Z" fill="#399BA4"/>
<path d="M148.541 33.3531C150.91 35.2501 152.353 37.4664 152.851 40.3926C153.251 45.0094 152.386 49.3427 149.51 53.1442C147.825 54.9677 145.909 56.4199 143.332 56.7122C140.667 56.8209 138.833 56.614 136.682 55.0427C133.986 52.3693 133.357 48.9985 133.407 45.4191C133.711 41.2383 135.23 37.353 138.458 34.438C141.521 32.1719 145.079 31.6039 148.541 33.3531ZM141.431 39.255C139.222 41.7011 138.87 44.6083 138.983 47.7455C139.204 49.3563 139.534 50.0599 140.752 51.193C141.668 51.7733 141.668 51.7733 142.768 51.5787C145.198 50.2703 146.406 48.2831 147.205 45.7928C147.858 43.2983 147.619 41.1578 146.398 38.8497C145.884 38.1533 145.884 38.1533 145.188 37.6925C143.249 37.6925 142.798 38.0485 141.431 39.255Z" fill="#399BA4"/>
<path d="M125.594 33.4818C128.891 35.7458 130.93 38.8614 131.796 42.7193C132.274 50.5958 132.274 50.5958 130.233 53.5245C128.82 55.0201 127.378 56.5087 125.25 56.7172C122.298 56.8051 120.352 56.6652 118.123 54.6822C117.883 54.4713 117.643 54.2603 117.395 54.043C114.287 50.9399 113.249 47.0995 113.191 42.8399C113.235 39.5861 113.783 37.1395 116.045 34.6712C118.853 32.0756 122.22 31.5698 125.594 33.4818ZM120.467 37.7026C118.791 40.1064 118.195 41.7624 118.514 44.6488C119.213 47.2684 120.086 49.7342 122.396 51.3538C123.549 51.6988 124.043 51.7034 125.155 51.2091C126.486 49.5325 126.975 47.6921 126.869 45.5864C126.412 42.7541 125.402 40.0095 123.202 38.0885C121.764 37.7148 121.764 37.7148 120.467 37.7026Z" fill="#399BA4"/>
<path d="M163.062 48.7848C165.18 50.2671 166.267 51.8509 166.955 54.2824C167.446 58.5935 166.652 62.5716 164.048 66.1196C162.274 68.1792 160.011 70.0271 157.248 70.5276C154.729 70.7333 152.821 70.4883 150.776 68.9427C148.245 65.8929 148.01 62.8773 148.349 59.0371C149.308 54.9759 151.429 51.853 154.81 49.3281C157.35 47.8615 160.317 47.8885 163.062 48.7848ZM156.439 55.0749C154.609 57.3326 153.417 59.796 153.708 62.727C153.87 64.1954 153.87 64.1954 154.821 64.9805C156.285 65.0367 157.256 64.8898 158.425 63.9884C160.291 62.0666 161.287 60.0748 161.697 57.4522C161.649 55.987 161.602 55.1063 160.736 53.911C159.101 52.8636 157.693 53.9725 156.439 55.0749Z" fill="#399BA4"/>
<path d="M109.435 48.6752C113.532 50.4604 115.419 53.1971 117.04 57.1028C118.234 60.5108 118.295 64.041 116.603 67.3081C115.109 68.9467 113.57 70.2604 111.253 70.5766C108.06 70.7203 105.597 69.7237 103.23 67.6815C100.13 64.5123 98.3691 61.0822 98.3691 56.6923C98.5691 53.7649 99.1452 51.7833 101.503 49.8018C103.883 47.9429 106.488 47.8065 109.435 48.6752ZM105.414 53.4808C104.319 54.4816 104.054 55.3144 103.99 56.7154C104.093 59.5772 105.446 62.0772 107.486 64.1476C108.916 65.0563 109.536 65.1081 111.216 64.9377C112.407 63.2338 112.332 61.8014 112.045 59.8019C111.139 57.2375 109.875 55.3465 107.486 53.8759C106.359 53.534 106.359 53.534 105.414 53.4808Z" fill="#399BA4"/>
</svg>
