<svg width="190" height="190" viewBox="0 0 190 190" fill="none" xmlns="http://www.w3.org/2000/svg">
<path d="M104.636 30.3469C105.059 30.3421 105.483 30.3372 105.919 30.3323C106.374 30.3354 106.829 30.3385 107.298 30.3417C107.767 30.3402 108.236 30.3387 108.719 30.3372C109.711 30.3362 110.703 30.339 111.694 30.3454C113.213 30.3536 114.732 30.3455 116.251 30.3357C117.214 30.3367 118.177 30.3387 119.14 30.3417C119.595 30.3386 120.05 30.3355 120.519 30.3323C121.154 30.3395 121.154 30.3395 121.802 30.3469C122.174 30.3481 122.546 30.3493 122.929 30.3506C124.207 30.6027 124.635 31.0707 125.443 32.0767C125.874 32.8071 125.874 32.8071 126.216 33.575C126.347 33.8663 126.479 34.1576 126.615 34.4577C126.753 34.7712 126.89 35.0847 127.032 35.4078C127.18 35.7371 127.327 36.0665 127.48 36.4058C127.958 37.4742 128.431 38.5447 128.904 39.6153C129.231 40.3465 129.557 41.0777 129.884 41.8086C130.828 43.9233 131.765 46.0408 132.701 48.159C132.95 48.7239 133.2 49.2887 133.45 49.8535C134.609 52.476 135.761 55.1015 136.902 57.7318C137.149 57.7354 137.396 57.739 137.65 57.7427C138.77 57.7633 139.889 57.7953 141.009 57.8276C141.591 57.8357 141.591 57.8357 142.185 57.844C142.746 57.8625 142.746 57.8625 143.319 57.8814C143.663 57.8894 144.007 57.8974 144.361 57.9057C145.639 58.1883 146.037 58.6095 146.834 59.6464C146.977 60.6501 147.028 61.4904 147.008 62.4917C147.008 62.7757 147.008 63.0598 147.008 63.3525C147.007 64.2891 146.995 65.2253 146.983 66.1619C146.981 66.8121 146.978 67.4624 146.977 68.1127C146.971 69.8225 146.956 71.5321 146.939 73.2418C146.923 74.9871 146.916 76.7325 146.909 78.4779C146.892 81.9012 146.866 85.3244 146.834 88.7477C147.233 88.7443 147.631 88.7409 148.042 88.7374C151.797 88.7063 155.551 88.6834 159.306 88.6683C161.236 88.6603 163.167 88.6495 165.097 88.6321C166.96 88.6155 168.822 88.6063 170.685 88.6024C171.396 88.5995 172.106 88.594 172.817 88.5857C173.813 88.5746 174.807 88.5731 175.802 88.5738C176.097 88.5683 176.391 88.5628 176.695 88.5571C178.013 88.5673 178.784 88.6498 179.871 89.4243C180.506 90.3628 180.629 90.7642 180.591 91.8809C180.582 92.3489 180.582 92.3489 180.573 92.8263C180.56 93.1605 180.547 93.4948 180.534 93.8392C180.527 94.5532 180.52 95.2671 180.514 95.9811C180.497 97.1025 180.473 98.2227 180.435 99.3436C180.126 103.673 180.126 103.673 181.731 107.481C182.799 108.239 183.868 108.834 185.033 109.425C188.348 112.893 190.044 117.274 189.999 122.061C189.552 129.767 184.956 134.249 179.529 139.126C178.498 140.057 177.481 141.003 176.462 141.948C176.045 142.335 175.628 142.721 175.21 143.108C175.003 143.3 174.796 143.492 174.582 143.689C173.753 144.458 172.923 145.226 172.093 145.994C171.678 146.377 171.264 146.76 170.85 147.143C169.826 148.092 168.801 149.039 167.775 149.987C167.368 150.363 166.961 150.738 166.554 151.114C166.355 151.299 166.155 151.483 165.949 151.674C164.782 152.753 163.621 153.837 162.464 154.927C162.203 155.173 161.942 155.418 161.673 155.671C161.163 156.152 160.654 156.633 160.146 157.114C159.915 157.331 159.685 157.548 159.447 157.772C159.243 157.965 159.038 158.159 158.828 158.358C157.759 159.284 156.712 159.405 155.314 159.38C153.629 159.026 152.6 157.703 151.418 156.523C150.656 155.826 149.893 155.132 149.126 154.441C148.489 153.859 147.852 153.277 147.216 152.694C147.206 153.036 147.196 153.377 147.186 153.729C147.165 154.177 147.143 154.625 147.121 155.087C147.103 155.531 147.085 155.976 147.067 156.433C146.785 157.934 146.526 158.305 145.306 159.203C144.18 159.355 143.197 159.413 142.071 159.402C141.746 159.404 141.42 159.407 141.084 159.41C140.009 159.416 138.933 159.412 137.857 159.407C137.11 159.408 136.362 159.409 135.614 159.411C134.047 159.414 132.48 159.41 130.913 159.403C128.904 159.394 126.895 159.399 124.886 159.409C123.342 159.414 121.798 159.412 120.254 159.408C119.513 159.407 118.772 159.409 118.031 159.412C116.996 159.416 115.961 159.41 114.926 159.402C114.62 159.405 114.313 159.408 113.997 159.411C112.718 159.391 111.838 159.293 110.736 158.621C109.929 157.283 109.961 156.061 109.99 154.545C109.989 154.231 109.989 153.917 109.989 153.594C109.99 152.558 110.002 151.522 110.014 150.486C110.017 149.767 110.019 149.048 110.02 148.329C110.026 146.438 110.041 144.547 110.058 142.656C110.074 140.726 110.081 138.796 110.088 136.866C110.105 133.08 110.132 129.293 110.163 125.507C108.02 125.507 105.877 125.507 103.669 125.507C103.578 126.095 103.487 126.683 103.394 127.289C102.775 131 101.976 134.676 101.2 138.357C101.077 138.943 101.077 138.943 100.951 139.541C100.517 141.601 100.082 143.662 99.6465 145.722C99.1973 147.846 98.7524 149.972 98.3083 152.098C97.965 153.738 97.6184 155.377 97.2711 157.016C97.1056 157.8 96.9412 158.584 96.7781 159.368C96.5503 160.462 96.3181 161.555 96.0848 162.647C95.9856 163.131 95.9856 163.131 95.8844 163.624C95.5262 165.278 95.1481 166.627 94.1195 168.01C93.071 168.536 92.2224 168.451 91.0488 168.461C90.5644 168.466 90.0799 168.471 89.5808 168.476C89.0494 168.479 88.5181 168.482 87.9868 168.485C87.7197 168.486 87.4525 168.488 87.1773 168.489C85.7638 168.497 84.3503 168.503 82.9368 168.506C81.4766 168.511 80.0167 168.524 78.5567 168.539C77.434 168.549 76.3113 168.552 75.1885 168.554C74.6503 168.555 74.1121 168.56 73.5739 168.567C72.8205 168.576 72.0671 168.575 71.3137 168.573C70.8851 168.576 70.4565 168.578 70.0149 168.58C68.6602 168.351 68.2157 167.932 67.3802 166.862C67.1772 166.096 67.1772 166.096 67.1892 165.33C67.1852 165.077 67.1813 164.825 67.1772 164.564C67.4728 163.449 68.0289 162.996 68.9081 162.267C69.8605 162.083 69.8605 162.083 70.9401 162.093C71.3453 162.093 71.7505 162.093 72.168 162.093C72.603 162.101 73.0379 162.109 73.4861 162.117C73.9333 162.119 74.3805 162.121 74.8412 162.124C76.2698 162.132 77.6979 162.152 79.1264 162.171C80.0948 162.179 81.0632 162.186 82.0316 162.192C84.4057 162.209 86.7797 162.234 89.1536 162.267C89.2089 161.899 89.2089 161.899 89.2652 161.525C89.8667 157.715 90.6842 153.956 91.4963 150.187C91.6495 149.473 91.8025 148.758 91.9555 148.043C92.3552 146.177 92.7562 144.312 93.1574 142.446C93.5679 140.536 93.9772 138.626 94.3866 136.716C95.1877 132.98 95.9901 129.243 96.7934 125.507C96.327 125.515 95.8606 125.523 95.38 125.532C93.6487 125.559 91.9174 125.577 90.186 125.591C89.4368 125.599 88.6876 125.609 87.9385 125.623C86.8613 125.641 85.7844 125.65 84.707 125.657C84.205 125.669 84.205 125.669 83.6928 125.681C82.2815 125.681 81.3896 125.659 80.1568 124.935C79.3646 123.56 79.3906 122.277 79.4062 120.733C79.4035 120.406 79.4008 120.08 79.398 119.744C79.3913 118.665 79.3958 117.587 79.4009 116.509C79.3999 115.759 79.3984 115.01 79.3965 114.26C79.3943 112.689 79.3975 111.118 79.4047 109.548C79.4134 107.534 79.4084 105.52 79.3992 103.506C79.3937 101.958 79.3954 100.41 79.3994 98.8626C79.4004 98.12 79.3992 97.3774 79.3956 96.6349C79.3917 95.5971 79.3976 94.5598 79.4062 93.5221C79.4031 93.2149 79.4 92.9078 79.3968 92.5913C79.4165 91.2977 79.511 90.4278 80.2028 89.3217C81.455 88.548 82.5439 88.5443 83.9703 88.5738C84.2537 88.5736 84.537 88.5733 84.829 88.5731C85.7634 88.5742 86.6973 88.5861 87.6316 88.5981C88.2803 88.601 88.929 88.6031 89.5777 88.6047C91.2834 88.6105 92.9889 88.6256 94.6945 88.6425C96.4357 88.6582 98.1768 88.6652 99.918 88.6729C103.333 88.6893 106.748 88.7154 110.163 88.7477C110.16 88.3865 110.156 88.0253 110.153 87.6532C110.122 84.2502 110.099 80.8472 110.084 77.444C110.076 75.6944 110.065 73.9449 110.048 72.1953C110.031 70.5071 110.022 68.8189 110.018 67.1305C110.015 66.4863 110.01 65.842 110.002 65.1978C109.99 64.2956 109.989 63.3939 109.99 62.4917C109.984 62.2251 109.979 61.9585 109.973 61.6838C109.984 60.4324 110.093 59.7443 110.826 58.7158C111.809 58.0328 112.293 57.9188 113.478 57.9057C113.829 57.8982 114.181 57.8906 114.543 57.8828C115.108 57.8821 115.108 57.8821 115.684 57.8814C116.266 57.8719 116.266 57.8719 116.859 57.8622C118.097 57.8436 119.335 57.8355 120.572 57.8276C121.412 57.8168 122.252 57.8053 123.091 57.7932C125.148 57.7648 127.205 57.7451 129.263 57.7318C129.176 57.5406 129.089 57.3493 129 57.1522C128.088 55.1396 127.177 53.1265 126.267 51.1131C125.928 50.3644 125.589 49.6158 125.25 48.8673C121.635 40.8901 121.635 40.8901 120.095 37.0546C119.878 37.0532 119.661 37.0518 119.438 37.0504C117.182 37.0344 114.927 37.0078 112.671 36.9751C111.83 36.9643 110.988 36.9562 110.146 36.9508C108.936 36.9426 107.726 36.9248 106.516 36.905C106.14 36.9045 105.763 36.9041 105.375 36.9036C102.764 36.8475 102.764 36.8475 101.522 35.9391C100.953 35.0759 100.788 34.6347 100.804 33.6084C100.798 33.2293 100.798 33.2293 100.792 32.8426C101.322 30.8448 102.743 30.3531 104.636 30.3469ZM116.275 64.2413C116.261 66.3287 116.246 68.4162 116.232 70.5668C116.22 71.8879 116.208 73.2088 116.195 74.5298C116.174 76.6274 116.155 78.7249 116.143 80.8225C116.133 82.5134 116.117 84.2041 116.098 85.8948C116.092 86.5404 116.087 87.1861 116.085 87.8317C116.081 88.7349 116.07 89.6377 116.058 90.5408C116.059 90.9428 116.059 90.9428 116.06 91.3529C116.04 92.379 115.986 93.1751 115.484 94.0818C114.349 94.7122 113.217 94.6595 111.952 94.6569C111.669 94.6608 111.385 94.6647 111.093 94.6687C110.157 94.6803 109.221 94.6838 108.284 94.6873C107.635 94.6937 106.986 94.7007 106.337 94.7081C104.628 94.7263 102.919 94.7377 101.21 94.7477C99.1602 94.7611 97.11 94.783 95.0597 94.8034C91.9451 94.8335 88.8305 94.8529 85.7157 94.8743C85.7157 102.961 85.7157 111.048 85.7157 119.381C88.8393 119.402 88.8393 119.402 92.026 119.424C93.3438 119.436 94.6617 119.448 95.9795 119.461C98.072 119.481 100.164 119.501 102.257 119.513C103.944 119.523 105.63 119.539 107.317 119.558C107.961 119.564 108.605 119.569 109.249 119.571C110.15 119.575 111.051 119.586 111.952 119.598C112.219 119.597 112.487 119.597 112.762 119.596C113.776 119.616 114.58 119.675 115.484 120.156C116.144 121.377 116.061 122.641 116.058 123.995C116.064 124.466 116.064 124.466 116.07 124.946C116.081 125.984 116.085 127.022 116.088 128.06C116.095 128.78 116.102 129.499 116.109 130.219C116.127 132.113 116.139 134.007 116.149 135.901C116.162 138.174 116.184 140.446 116.204 142.719C116.234 146.171 116.254 149.624 116.275 153.077C124.343 153.077 132.41 153.077 140.722 153.077C141.483 146.527 141.483 146.527 138.669 143.863C138.014 143.291 138.014 143.291 137.393 142.879C136.273 142.079 135.263 141.211 134.252 140.273C133.948 139.998 133.643 139.723 133.329 139.44C132.995 139.139 132.662 138.837 132.319 138.526C132.117 138.344 131.915 138.162 131.707 137.974C126.954 133.666 122.874 129.754 122.303 122.985C122.118 117.596 123.963 113.019 127.596 109.096C131.759 105.316 136.762 104.07 142.25 104.064C147.644 104.434 151.657 106.601 155.62 110.191C156.699 109.697 157.485 109.166 158.342 108.348C161.925 105.202 166.089 104.37 170.709 104.208C171.906 104.16 173.104 104.113 174.337 104.064C174.337 101.031 174.337 97.9988 174.337 94.8743C172.888 94.8659 172.888 94.8659 171.41 94.8573C168.222 94.8381 165.034 94.8126 161.846 94.784C159.913 94.7669 157.979 94.7518 156.046 94.7416C154.181 94.7317 152.316 94.7162 150.451 94.6969C149.739 94.6905 149.026 94.6861 148.314 94.6837C147.318 94.68 146.322 94.6693 145.326 94.6569C144.882 94.6577 144.882 94.6577 144.429 94.6586C143.342 94.6394 142.463 94.6065 141.495 94.0818C140.891 92.9397 140.937 91.8028 140.939 90.5408C140.933 90.1148 140.933 90.1148 140.927 89.6802C140.916 88.7416 140.912 87.8032 140.909 86.8645C140.902 86.2137 140.895 85.5629 140.888 84.9121C140.87 83.1992 140.859 81.4864 140.849 79.7735C140.835 77.7182 140.813 75.6631 140.793 73.6079C140.763 70.4857 140.744 67.3636 140.722 64.2413C132.655 64.2413 124.587 64.2413 116.275 64.2413ZM130.791 115.169C128.694 117.998 128.451 120.918 128.881 124.358C129.914 128.283 132.757 130.58 135.806 133.014C137.208 134.187 138.472 135.464 139.736 136.782C140.78 137.817 141.871 138.775 142.98 139.739C144.254 140.859 145.483 142.026 146.715 143.193C147.247 143.695 147.78 144.196 148.313 144.698C149.085 145.426 149.858 146.154 150.629 146.883C151.304 147.522 151.982 148.158 152.66 148.793C152.86 148.983 153.06 149.174 153.266 149.37C154.245 150.284 155.14 151.032 156.384 151.545C156.624 151.3 156.865 151.055 157.112 150.802C157.439 150.471 157.766 150.139 158.103 149.798C158.422 149.474 158.741 149.15 159.07 148.815C160.155 147.74 161.304 146.746 162.457 145.744C163.807 144.553 165.107 143.309 166.411 142.068C169.238 139.39 172.087 136.739 174.97 134.123C180.544 129.51 180.544 129.51 183.256 123.133C183.403 119.632 182.891 117.029 180.513 114.392C177.147 111.244 173.831 110.372 169.303 110.472C164.988 110.773 162.214 113.36 159.128 116.187C157.866 117.32 156.96 117.885 155.238 117.849C153.597 116.874 152.264 115.724 150.893 114.403C147.381 111.15 144.268 110.377 139.596 110.47C135.92 110.643 133.19 112.442 130.791 115.169Z" fill="#204F4E"/>
<path d="M48.5846 133.893C49.3989 134.52 50.1779 135.172 50.9541 135.846C51.3323 136.123 51.7104 136.399 52.1001 136.684C57.8003 141.577 60.9242 149.79 61.6021 157.074C61.9278 164.903 59.8119 172.975 54.5352 178.924C53.9829 179.503 53.4264 180.078 52.864 180.647C52.5489 180.986 52.2338 181.326 51.9091 181.676C45.0811 188.007 37.2907 190.237 28.1093 189.98C21.5466 189.663 15.4082 186.854 10.4631 182.561C10.1558 182.328 9.84858 182.095 9.53201 181.855C4.50326 177.614 0.897463 170.28 0.149371 163.799C-0.519873 154.907 0.949478 146.566 6.80734 139.575C7.61766 138.676 8.43118 137.821 9.31714 136.995C9.56975 136.74 9.82235 136.484 10.0826 136.222C20.3953 126.225 37.016 126.021 48.5846 133.893ZM21.5408 136.612C20.9994 136.847 20.9994 136.847 20.4471 137.086C18.6461 137.93 17.6406 138.607 16.193 140.058C27.286 151.178 38.379 162.298 49.8081 173.754C53.7153 169.838 54.8784 164.69 54.965 159.323C54.9407 152.274 52.476 146.859 47.6624 141.699C42.5414 136.776 36.5916 134.885 29.641 134.918C26.7033 134.992 24.2548 135.426 21.5408 136.612ZM11.2271 144.653C6.87997 149.866 6.17712 156.522 6.64321 163.033C7.52423 169.274 11.3025 175.008 16.2571 178.777C22.2909 182.798 28.6507 184.256 35.8341 183.121C36.8342 182.863 37.7707 182.559 38.7304 182.178C39.0298 182.063 39.3292 181.947 39.6376 181.828C41.6315 180.998 43.4238 179.919 45.2242 178.732C43.5095 176.673 41.6966 174.758 39.8028 172.865C39.4976 172.559 39.1923 172.252 38.8778 171.936C37.8762 170.93 36.8731 169.926 35.8699 168.922C35.1718 168.222 34.4737 167.521 33.7757 166.821C32.317 165.358 30.8576 163.896 29.3977 162.435C27.7083 160.743 26.0204 159.051 24.3331 157.357C22.708 155.726 21.0819 154.096 19.4552 152.467C18.7633 151.774 18.0717 151.08 17.3803 150.386C16.4183 149.421 15.455 148.457 14.4914 147.493C14.2035 147.203 13.9156 146.914 13.619 146.616C13.3582 146.356 13.0974 146.095 12.8287 145.827C12.6011 145.599 12.3734 145.371 12.1389 145.136C11.6813 144.61 11.6813 144.61 11.2271 144.653Z" fill="#204F4E"/>
<path d="M68.1438 1.82707C68.4505 1.96133 68.7573 2.09559 69.0734 2.23392C74.336 4.86702 77.6207 9.41569 79.6244 14.8162C81.5266 21.0251 80.3339 27.3889 77.3921 33.0254C75.3595 36.4606 72.2118 39.2155 69.242 41.8204C67.8062 43.0993 66.4122 44.42 65.0162 45.7423C64.4517 46.2763 63.8872 46.8103 63.3226 47.3442C63.043 47.6087 62.7634 47.8732 62.4753 48.1457C58.8437 51.5755 55.1903 54.9824 51.5134 58.3632C50.982 58.8552 50.4561 59.3533 49.9306 59.8517C44.8928 64.5634 39.0108 67.1796 32.0681 67.0402C26.1449 66.5254 21.1652 64.3193 17.0541 59.9205C13.4251 55.5388 11.633 50.1719 11.845 44.4649C12.556 38.2246 14.8576 33.5055 19.249 29.0138C19.5947 28.6569 19.9403 28.3001 20.2965 27.9324C22.0392 26.1533 23.8301 24.4603 25.7082 22.8264C27.0313 21.6584 28.3075 20.4416 29.5866 19.2256C30.159 18.6836 30.7315 18.1416 31.3041 17.5997C31.5886 17.3303 31.8732 17.0609 32.1664 16.7833C33.6441 15.3867 35.1283 13.9972 36.6166 12.612C37.8258 11.4857 39.026 10.3517 40.2137 9.20261C47.847 1.85304 57.7054 -2.74978 68.1438 1.82707ZM45.572 13.7183C44.6031 14.7074 43.5588 15.5914 42.4967 16.4779C41.6518 17.2697 40.9633 18.1406 40.2585 19.0581C40.5583 19.3543 40.8582 19.6504 41.1672 19.9556C43.1448 21.9177 45.0848 23.8791 46.8896 26.0044C47.8165 27.0574 48.8207 28.0274 49.8187 29.0123C50.7912 30.0027 51.6877 31.0491 52.5911 32.1025C53.4367 33.0583 54.3402 33.9446 55.2501 34.8383C56.1798 35.7889 57.0302 36.8007 57.8793 37.8238C58.8105 38.8177 59.8293 39.6425 60.886 40.5012C62.3132 39.2016 63.7309 37.8927 65.1393 36.5728C65.6038 36.1382 66.0698 35.7052 66.5375 35.2741C69.4532 32.5737 71.6571 30.1226 73.1096 26.3334C73.283 25.8912 73.4563 25.4489 73.6349 24.9932C74.4191 20.591 73.8287 16.5585 71.3176 12.8313C69.1302 9.91867 66.0464 7.44907 62.4139 6.80493C55.2826 6.15579 50.4257 8.62312 45.572 13.7183ZM35.2926 23.2701C35.1219 23.4317 34.9512 23.5932 34.7753 23.7596C33.9691 24.5221 33.1626 25.2842 32.356 26.0462C32.0619 26.3244 31.7677 26.6025 31.4647 26.8891C29.8881 28.3775 28.3036 29.8554 26.7011 31.3156C22.3691 35.2731 18.9737 38.9776 18.485 45.0961C18.3915 48.9344 19.5814 52.5761 21.9946 55.5783C25.0153 58.7241 29.0095 60.3626 33.3349 60.5801C39.3068 60.3612 43.372 57.043 47.5163 53.1373C47.7732 52.8964 48.0301 52.6556 48.2948 52.4075C50.824 50.0382 50.824 50.0382 53.3353 47.6499C53.8751 47.1386 54.4311 46.6445 54.992 46.1566C55.6061 45.53 55.6061 45.53 55.5769 44.7551C54.9434 43.5391 53.99 42.6774 53.0074 41.7456C52.5864 41.336 52.1661 40.9257 51.7465 40.5146C51.5434 40.3158 51.3402 40.1169 51.1308 39.912C50.1995 38.9791 49.3526 37.9798 48.4996 36.9757C47.6856 36.0463 46.8072 35.1909 45.9271 34.3249C45.2547 33.6396 44.6258 32.9344 44.0008 32.2057C42.5056 30.4823 40.9597 28.8108 39.399 27.1471C39.1292 26.8569 38.8593 26.5666 38.5813 26.2676C38.1913 25.8515 38.1913 25.8515 37.7934 25.427C37.5604 25.1778 37.3274 24.9286 37.0873 24.6718C36.4003 23.9592 36.4003 23.9592 35.2926 23.2701Z" fill="#204F4E"/>
<path d="M90.2995 30.3536C90.5713 30.3477 90.8431 30.3418 91.1232 30.3357C92.4399 30.3455 93.2208 30.4477 94.2985 31.2272C94.915 32.1226 95.0911 32.5351 95.0744 33.6084C95.0783 33.8611 95.0823 34.1138 95.0863 34.3742C94.7771 35.5413 94.3313 35.9659 93.3554 36.6717C92.2742 36.8252 91.3754 36.8866 90.2995 36.8631C90.0277 36.8691 89.7559 36.875 89.4758 36.8811C88.1592 36.8712 87.3782 36.7691 86.3006 35.9896C85.684 35.0942 85.5079 34.6817 85.5246 33.6084C85.5187 33.2293 85.5187 33.2293 85.5127 32.8426C86.164 30.3849 88.1028 30.3058 90.2995 30.3536Z" fill="#204F4E"/>
</svg>
