<svg width="145" height="189" viewBox="0 0 145 189" fill="none" xmlns="http://www.w3.org/2000/svg">
<path d="M86.8407 5.32181C87.9404 6.27404 88.7588 7.28129 89.6291 8.44616C89.9257 8.83741 90.2223 9.22867 90.5279 9.63178C91.3914 10.9434 91.925 12.1782 92.5248 13.6243C92.8254 13.6266 93.126 13.6289 93.4358 13.6312C96.2723 13.654 99.1087 13.6823 101.945 13.7168C103.403 13.7344 104.861 13.7498 106.32 13.7603C107.728 13.7705 109.135 13.7864 110.543 13.8061C111.08 13.8127 111.616 13.8172 112.152 13.8197C112.905 13.8234 113.658 13.8351 114.411 13.8471C114.839 13.8515 115.267 13.8559 115.708 13.8604C117.042 14.0403 117.769 14.3752 118.832 15.1949C119.681 16.4046 119.713 17.4353 119.706 18.8902C119.706 19.3146 119.706 19.739 119.706 20.1762C119.702 20.6319 119.698 21.0876 119.694 21.5571C119.692 22.2597 119.692 22.2597 119.69 22.9765C119.686 24.4728 119.676 25.969 119.666 27.4653C119.662 28.4796 119.658 29.494 119.655 30.5083C119.647 32.9952 119.633 35.4819 119.617 37.9687C119.942 37.9605 120.266 37.9523 120.601 37.9438C122.073 37.9112 123.544 37.8907 125.016 37.8706C125.527 37.8574 126.038 37.8443 126.565 37.8307C127.056 37.8256 127.547 37.8206 128.052 37.8154C128.505 37.8071 128.957 37.7989 129.423 37.7904C130.901 38.0124 131.266 38.3781 132.181 39.5393C132.378 40.5987 132.378 40.5987 132.379 41.8377C132.383 42.3104 132.387 42.783 132.391 43.27C132.388 43.7952 132.384 44.3204 132.381 44.8455C132.383 45.4029 132.385 45.9603 132.388 46.5177C132.395 48.0512 132.391 49.5845 132.387 51.1181C132.383 52.7711 132.389 54.4242 132.393 56.0773C132.4 59.3163 132.398 62.5554 132.394 65.7945C132.39 68.4264 132.39 71.0582 132.391 73.6901C132.392 74.0643 132.392 74.4385 132.392 74.824C132.393 75.5842 132.393 76.3443 132.394 77.1044C132.398 84.2366 132.393 91.3688 132.385 98.5009C132.378 104.624 132.379 110.747 132.386 116.87C132.394 123.977 132.398 131.083 132.393 138.189C132.392 138.946 132.392 139.704 132.391 140.461C132.391 141.02 132.391 141.02 132.391 141.59C132.389 144.22 132.392 146.849 132.395 149.479C132.4 152.682 132.399 155.886 132.39 159.089C132.386 160.724 132.384 162.359 132.39 163.995C132.394 165.49 132.392 166.986 132.383 168.482C132.382 169.024 132.383 169.566 132.386 170.108C132.391 170.843 132.385 171.579 132.379 172.314C132.379 172.722 132.378 173.131 132.378 173.553C132.125 174.913 131.723 175.373 130.611 176.183C129.672 176.379 129.672 176.379 128.607 176.38C127.996 176.386 127.996 176.386 127.373 176.393C126.927 176.389 126.48 176.386 126.02 176.382C125.308 176.386 125.308 176.386 124.581 176.389C123.263 176.395 121.944 176.393 120.626 176.388C119.204 176.384 117.782 176.39 116.361 176.394C113.575 176.401 110.79 176.4 108.004 176.395C105.741 176.391 103.477 176.391 101.214 176.393C100.731 176.393 100.731 176.393 100.239 176.393C99.5847 176.394 98.9309 176.394 98.277 176.395C92.1427 176.399 86.0085 176.394 79.8742 176.386C74.6084 176.379 69.3427 176.38 64.0769 176.387C57.9649 176.396 51.8529 176.399 45.7409 176.394C45.0894 176.394 44.4379 176.393 43.7864 176.393C43.4658 176.392 43.1453 176.392 42.815 176.392C40.5538 176.391 38.2926 176.393 36.0314 176.397C33.2765 176.401 30.5217 176.4 27.7668 176.391C26.3606 176.387 24.9546 176.386 23.5484 176.391C22.0256 176.396 20.503 176.39 18.9802 176.382C18.3103 176.387 18.3103 176.387 17.6269 176.393C17.2199 176.388 16.8129 176.384 16.3936 176.38C16.042 176.38 15.6904 176.38 15.3281 176.379C14.0448 176.11 13.59 175.663 12.8191 174.612C12.6222 173.553 12.6222 173.553 12.6215 172.314C12.6174 171.841 12.6133 171.368 12.6091 170.881C12.6125 170.356 12.616 169.831 12.6197 169.306C12.6179 168.748 12.6154 168.191 12.6123 167.634C12.6057 166.1 12.6089 164.567 12.6138 163.033C12.6173 161.38 12.6119 159.727 12.6075 158.074C12.6006 154.835 12.6021 151.596 12.6066 148.357C12.6102 145.725 12.6107 143.093 12.6089 140.461C12.6087 140.087 12.6085 139.713 12.6082 139.327C12.6077 138.567 12.6072 137.807 12.6067 137.047C12.6022 129.915 12.6074 122.782 12.6158 115.65C12.6228 109.527 12.6216 103.404 12.6144 97.2808C12.606 90.1746 12.6026 83.0684 12.6075 75.9622C12.608 75.2048 12.6085 74.4474 12.6089 73.6901C12.6092 73.3174 12.6094 72.9447 12.6097 72.5608C12.611 69.9313 12.6087 67.3018 12.6051 64.6723C12.6007 61.4689 12.6018 58.2656 12.6102 55.0623C12.6143 53.4271 12.6159 51.792 12.6108 50.1567C12.6061 48.6609 12.6086 47.1652 12.617 45.6693C12.6188 45.1272 12.6179 44.585 12.6141 44.0428C12.6093 43.3078 12.6151 42.5727 12.6215 41.8377C12.6217 41.4288 12.622 41.02 12.6222 40.5987C12.8713 39.2584 13.3215 38.7919 14.3897 37.9687C15.5772 37.7904 15.5772 37.7904 16.948 37.8154C17.4389 37.8204 17.9299 37.8255 18.4357 37.8307C18.9469 37.8439 19.4581 37.857 19.9848 37.8706C20.502 37.8777 21.0193 37.8847 21.5523 37.892C22.8296 37.9106 24.1065 37.9364 25.3836 37.9687C25.3809 37.7075 25.3783 37.4462 25.3756 37.177C25.3496 34.4572 25.3318 31.7375 25.3188 29.0176C25.3129 28.0026 25.3049 26.9876 25.2947 25.9726C25.2804 24.5135 25.2737 23.0546 25.2685 21.5954C25.2624 21.1418 25.2564 20.6881 25.2501 20.2207C25.25 19.7963 25.2499 19.372 25.2498 18.9348C25.2472 18.5624 25.2446 18.1901 25.2419 17.8065C25.4148 16.5358 25.7887 15.8213 26.5615 14.8022C27.8306 13.8926 29.0127 13.9104 30.545 13.8917C31.0322 13.8839 31.5195 13.8761 32.0215 13.8681C32.5512 13.8634 33.0809 13.8588 33.6106 13.8543C34.1541 13.847 34.6977 13.8393 35.2412 13.8313C36.669 13.8112 38.0968 13.7956 39.5246 13.781C40.9828 13.7652 42.4408 13.7452 43.8989 13.7255C46.7578 13.6875 49.6167 13.6544 52.4756 13.6243C52.676 13.2186 52.676 13.2186 52.8805 12.8046C53.0564 12.4503 53.2323 12.096 53.4135 11.7309C53.5876 11.3794 53.7617 11.028 53.9411 10.6659C56.3737 5.93439 60.8248 2.74223 65.7395 0.924403C73.4003 -1.34156 80.5863 0.72279 86.8407 5.32181ZM61.0155 12.1764C59.7825 13.6901 59.074 15.3528 58.3652 17.1581C57.2817 19.8595 57.2817 19.8595 56.402 20.2994C55.6284 20.3465 54.8532 20.369 54.0782 20.38C53.3472 20.3917 53.3472 20.3917 52.6015 20.4037C52.0677 20.4104 51.5339 20.417 51.0002 20.4236C50.4555 20.4317 49.9108 20.4399 49.3662 20.4483C47.9319 20.47 46.4976 20.4894 45.0633 20.5083C43.6 20.5281 42.1367 20.5499 40.6735 20.5716C37.8018 20.6141 34.9301 20.6529 32.0584 20.692C32.0584 26.3933 32.0584 32.0947 32.0584 37.9687C58.75 37.9687 85.4416 37.9687 112.942 37.9687C112.942 32.2674 112.942 26.5661 112.942 20.692C110.333 20.6768 110.333 20.6768 107.672 20.6613C106.285 20.6489 104.897 20.6349 103.51 20.6198C102.046 20.6044 100.582 20.5917 99.1176 20.5856C97.7071 20.5797 96.2968 20.5661 94.8864 20.5474C94.3486 20.5416 93.8107 20.5385 93.2728 20.5381C92.5189 20.5372 91.7651 20.5257 91.0114 20.5137C90.5824 20.5102 90.1534 20.5067 89.7114 20.5031C88.3383 20.2517 87.8839 19.8094 87.0278 18.7288C86.6137 17.741 86.6137 17.741 86.2916 16.6673C84.9624 12.7829 82.3527 9.89064 78.7088 8.00442C72.4639 4.98997 65.5079 7.32443 61.0155 12.1764ZM19.494 44.2512C19.494 85.7153 19.494 127.179 19.494 169.9C54.4781 169.9 89.4622 169.9 125.506 169.9C125.506 128.436 125.506 86.9718 125.506 44.2512C90.5223 44.2512 55.5382 44.2512 19.494 44.2512Z" fill="#399BA4"/>
<path d="M12.4508 25.2499C12.9531 25.2402 13.4555 25.2306 13.973 25.2207C14.4551 25.2192 14.9372 25.2177 15.4339 25.2161C15.8738 25.2129 16.3137 25.2097 16.7669 25.2063C18.1735 25.4384 18.6278 25.8588 19.4938 26.9677C19.7023 27.753 19.7023 27.753 19.6901 28.5383C19.6941 28.7975 19.6982 29.0566 19.7023 29.3236C19.3731 30.563 18.9931 30.9508 17.9232 31.6795C16.5591 31.901 15.2048 31.8995 13.825 31.9004C10.2662 31.8278 10.2662 31.8278 7.32195 33.6428C7.28249 34.4215 7.27121 35.2016 7.27035 35.9813C7.26884 36.4929 7.26733 37.0045 7.26578 37.5316C7.26608 38.1068 7.26643 38.682 7.26681 39.2572C7.2658 39.8624 7.26461 40.4677 7.26327 41.0729C7.26009 42.7441 7.2594 44.4152 7.25911 46.0864C7.25839 47.8857 7.25543 49.6849 7.25278 51.4841C7.24744 55.4219 7.24508 59.3597 7.24335 63.2976C7.24227 65.7543 7.2406 68.211 7.23883 70.6677C7.23405 77.4636 7.23 84.2595 7.22867 91.0555C7.22859 91.4907 7.2285 91.926 7.22841 92.3745C7.22833 92.8109 7.22824 93.2472 7.22815 93.6968C7.22798 94.5811 7.2278 95.4654 7.22763 96.3497C7.22754 96.7884 7.22745 97.227 7.22736 97.679C7.22581 104.79 7.21896 111.901 7.20982 119.013C7.20052 126.306 7.19561 133.599 7.19516 140.892C7.19479 144.99 7.19252 149.088 7.18541 153.186C7.17938 156.675 7.17734 160.164 7.1806 163.653C7.18214 165.434 7.18174 167.216 7.17625 168.997C7.17129 170.626 7.17169 172.255 7.17649 173.884C7.17726 174.475 7.17602 175.066 7.17262 175.657C7.16831 176.458 7.17189 177.258 7.17592 178.058C7.17568 178.503 7.17545 178.949 7.17521 179.407C7.23375 180.494 7.23375 180.494 7.84642 181.212C9.12071 182.111 10.2734 182.115 11.7795 182.117C12.4377 182.119 12.4377 182.119 13.1092 182.122C13.5933 182.121 14.0774 182.121 14.5762 182.121C15.0889 182.122 15.6016 182.123 16.1298 182.124C17.5559 182.127 18.982 182.128 20.4081 182.128C21.9449 182.129 23.4818 182.132 25.0187 182.135C28.3804 182.14 31.7421 182.142 35.1038 182.144C37.202 182.145 39.3002 182.147 41.3984 182.149C47.2052 182.153 53.012 182.158 58.8188 182.159C59.1905 182.159 59.5623 182.159 59.9453 182.159C60.3179 182.159 60.6906 182.159 61.0745 182.159C61.8296 182.16 62.5848 182.16 63.3399 182.16C63.9017 182.16 63.9017 182.16 64.475 182.16C70.5469 182.162 76.6188 182.169 82.6907 182.178C88.9214 182.187 95.1522 182.192 101.383 182.192C104.883 182.193 108.382 182.195 111.882 182.202C114.861 182.208 117.841 182.21 120.82 182.207C122.341 182.205 123.862 182.206 125.382 182.211C127.03 182.217 128.677 182.214 130.324 182.21C131.048 182.215 131.048 182.215 131.786 182.219C132.447 182.216 132.447 182.216 133.122 182.212C133.502 182.212 133.882 182.212 134.274 182.212C135.639 182.021 136.697 181.476 137.678 180.495C137.717 179.716 137.729 178.936 137.73 178.156C137.731 177.645 137.733 177.133 137.734 176.606C137.734 176.031 137.734 175.456 137.733 174.881C137.734 174.275 137.735 173.67 137.737 173.065C137.74 171.394 137.741 169.723 137.741 168.051C137.742 166.252 137.745 164.453 137.747 162.654C137.753 158.716 137.755 154.778 137.757 150.84C137.758 148.384 137.759 145.927 137.761 143.47C137.766 136.674 137.77 129.878 137.771 123.082C137.771 122.647 137.771 122.212 137.772 121.763C137.772 121.327 137.772 120.891 137.772 120.441C137.772 119.557 137.772 118.672 137.772 117.788C137.772 117.349 137.773 116.911 137.773 116.459C137.774 109.348 137.781 102.236 137.79 95.1252C137.799 87.8321 137.804 80.5389 137.805 73.2457C137.805 69.1477 137.807 65.0498 137.815 60.9518C137.821 57.4629 137.823 53.974 137.819 50.4851C137.818 48.7036 137.818 46.9222 137.824 45.1407C137.829 43.5116 137.828 41.8827 137.824 40.2536C137.823 39.6625 137.824 39.0714 137.827 38.4803C137.832 37.6803 137.828 36.8802 137.824 36.0801C137.824 35.6347 137.825 35.1892 137.825 34.7303C137.766 33.6437 137.766 33.6437 137.154 32.926C135.957 32.0816 134.874 32.0221 133.459 32.0032C132.917 31.9891 132.917 31.9891 132.364 31.9748C131.606 31.958 130.847 31.9457 130.088 31.938C127.334 31.8551 127.334 31.8551 126.045 30.9755C125.48 30.0667 125.293 29.5983 125.31 28.5383C125.304 28.1496 125.304 28.1496 125.298 27.753C125.605 26.5972 126.153 26.145 127.077 25.3971C128.214 25.1939 128.214 25.1939 129.525 25.1885C130.001 25.1865 130.478 25.1845 130.969 25.1824C131.466 25.1884 131.963 25.1945 132.476 25.2008C132.967 25.1947 133.457 25.1886 133.963 25.1824C137.217 25.1961 139.444 25.4777 141.992 27.6257C142.164 27.8378 142.336 28.0499 142.512 28.2684C142.777 28.5819 142.777 28.5819 143.048 28.9018C145.014 31.9814 144.914 34.8879 144.9 38.4335C144.902 39.0485 144.905 39.6635 144.908 40.2786C144.914 41.966 144.913 43.6534 144.911 45.3408C144.91 47.1617 144.916 48.9826 144.92 50.8035C144.929 54.37 144.931 57.9365 144.93 61.503C144.929 64.4021 144.931 67.3012 144.934 70.2003C144.935 71.0354 144.935 71.8705 144.936 72.7057C144.937 73.3291 144.937 73.3291 144.937 73.9652C144.945 81.8266 144.944 89.688 144.942 97.5494C144.94 104.74 144.948 111.93 144.961 119.121C144.974 126.505 144.98 133.889 144.978 141.273C144.977 145.419 144.979 149.564 144.989 153.709C144.997 157.238 144.999 160.767 144.991 164.296C144.988 166.097 144.987 167.897 144.995 169.697C145.003 171.346 145.001 172.995 144.992 174.644C144.99 175.24 144.992 175.835 144.997 176.43C145.029 180.201 144.769 183.485 142.07 186.358C140.177 188.12 138.391 188.838 135.79 188.842C135.331 188.844 134.872 188.847 134.4 188.849C133.897 188.848 133.395 188.847 132.877 188.846C132.337 188.847 131.796 188.849 131.256 188.851C129.771 188.856 128.287 188.856 126.802 188.855C125.2 188.855 123.599 188.859 121.998 188.863C118.86 188.869 115.723 188.871 112.586 188.872C110.035 188.872 107.485 188.874 104.935 188.876C97.7057 188.883 90.4762 188.887 83.2466 188.886C82.8569 188.886 82.4671 188.886 82.0655 188.886C81.6752 188.886 81.285 188.886 80.8829 188.886C74.5579 188.886 68.233 188.893 61.908 188.904C55.4141 188.916 48.9202 188.921 42.4264 188.92C38.7803 188.92 35.1343 188.922 31.4883 188.931C28.384 188.938 25.2797 188.94 22.1754 188.934C20.5917 188.932 19.0081 188.932 17.4244 188.938C15.9739 188.945 14.5235 188.944 13.0729 188.937C12.3013 188.935 11.5296 188.941 10.758 188.947C7.63069 188.923 5.46357 188.582 3.00753 186.512C2.83595 186.3 2.66437 186.088 2.48759 185.869C2.31095 185.66 2.1343 185.451 1.95231 185.236C-0.013673 182.156 0.0859309 179.25 0.0995938 175.704C0.0976733 175.089 0.0952428 174.474 0.0923467 173.859C0.0859092 172.172 0.0868174 170.484 0.0889601 168.797C0.0900088 166.976 0.0843023 165.155 0.0794993 163.334C0.0712324 159.768 0.0694501 156.201 0.07015 152.635C0.0706635 149.736 0.0691694 146.837 0.0662528 143.937C0.0654285 143.102 0.0646051 142.267 0.0637821 141.432C0.0633724 141.016 0.0629626 140.601 0.0625405 140.173C0.0551185 132.311 0.0555312 124.45 0.0582096 116.588C0.0603986 109.398 0.0522225 102.207 0.0392213 95.017C0.0259734 87.6328 0.0200193 80.2486 0.0218341 72.8644C0.0227153 68.7192 0.0206583 64.574 0.0108822 60.4287C0.00262977 56.8995 0.00122285 53.3705 0.00864371 49.8413C0.0122383 48.0411 0.0126913 46.2411 0.00457793 44.441C-0.00277315 42.7917 -0.000995067 41.1427 0.007933 39.4934C0.00957526 38.8981 0.00793195 38.3028 0.00259485 37.7075C-0.0288997 33.9367 0.231429 30.6531 2.92989 27.78C5.78653 25.1221 8.70968 25.2536 12.4508 25.2499Z" fill="#399BA4"/>
<path d="M95.6599 76.8425C96.5854 77.626 97.0047 78.1219 97.6231 79.1985C97.6231 80.6452 97.5546 81.5242 96.6661 82.6833C95.3805 83.6089 94.4879 83.6714 92.9115 83.5176C91.9879 83.0089 91.1852 82.5062 90.3348 81.898C82.7784 76.796 74.7631 75.2074 65.8194 76.8425C58.2562 78.5126 51.4643 82.9241 46.9988 89.2648C42.4183 96.7203 40.6301 104.76 42.1123 113.485C43.2798 118.373 45.6671 123.27 48.9359 127.102C49.1849 127.435 49.1849 127.435 49.439 127.774C54.0709 133.726 61.7733 136.818 69.0111 137.885C77.3151 138.802 85.6255 136.209 92.1927 131.117C97.6209 126.66 102.025 119.671 103.037 112.651C103.269 110.239 103.289 107.797 103.296 105.376C103.344 102.282 103.344 102.282 104.201 100.712C105.179 99.9326 105.613 99.7425 106.85 99.7637C107.294 99.7561 107.294 99.7561 107.746 99.7483C108.617 100.009 108.617 100.009 109.5 100.693C110.588 102.718 110.42 104.716 110.384 106.979C110.379 107.455 110.374 107.932 110.369 108.422C110.132 118.999 105.712 127.64 98.2765 135.089C90.2195 142.716 80.4001 145.193 69.6292 144.92C59.2806 144.459 50.6109 139.333 43.5862 131.912C36.2328 123.508 34.231 113.659 34.7133 102.84C35.4182 92.7025 41.1543 83.8603 48.6537 77.2981C62.1154 66.6019 82.0604 66.2406 95.6599 76.8425Z" fill="#399BA4"/>
<path d="M109.401 81.1532C110.383 81.7422 110.383 81.7422 110.972 82.7239C111.211 84.0261 111.306 84.6344 110.972 85.8651C110.455 86.6028 110.455 86.6028 109.777 87.3401C109.527 87.6134 109.277 87.8868 109.02 88.1684C107.723 89.5324 106.409 90.8754 105.076 92.2042C104.775 92.5066 104.473 92.8089 104.162 93.1205C103.175 94.1096 102.186 95.0972 101.197 96.0848C100.508 96.7748 99.8179 97.4648 99.1284 98.1549C97.6884 99.5955 96.2478 101.035 94.8066 102.475C93.3254 103.954 91.845 105.434 90.3657 106.916C88.5762 108.708 86.7859 110.498 84.9947 112.288C84.3123 112.97 83.6302 113.653 82.9484 114.336C81.9991 115.286 81.0487 116.235 80.0978 117.184C79.8149 117.467 79.532 117.751 79.2405 118.043C78.9824 118.3 78.7243 118.557 78.4584 118.822C78.234 119.046 78.0095 119.271 77.7783 119.502C76.7131 120.475 75.6337 120.677 74.1978 120.652C72.1353 120.128 70.7244 118.308 69.2785 116.836C68.9049 116.464 68.5308 116.093 68.1564 115.723C67.3751 114.946 66.5997 114.164 65.8281 113.377C64.8414 112.373 63.8413 111.383 62.8363 110.397C62.0618 109.634 61.2951 108.863 60.5304 108.09C59.9874 107.544 59.438 107.004 58.8886 106.465C56.1801 103.674 56.1801 103.674 56.145 101.774C56.5266 99.6664 56.5266 99.6664 57.5729 98.8226C58.972 98.434 59.8724 98.2217 61.2136 98.8438C62.6733 99.8852 63.8832 101.11 65.1389 102.386C65.4063 102.654 65.6737 102.923 65.9492 103.199C66.7991 104.054 67.6462 104.911 68.4932 105.768C69.0705 106.349 69.6479 106.93 70.2256 107.511C71.6379 108.932 73.0478 110.355 74.4564 111.78C75.6178 111.257 76.4321 110.687 77.3285 109.785C77.5773 109.537 77.8261 109.288 78.0825 109.033C78.4852 108.625 78.4852 108.625 78.896 108.209C79.1822 107.922 79.4684 107.635 79.7633 107.34C80.7088 106.392 81.6516 105.441 82.5945 104.49C83.2504 103.832 83.9065 103.173 84.5628 102.515C86.2902 100.783 88.0154 99.0479 89.74 97.3124C92.5029 94.5324 95.2685 91.7551 98.0353 88.9791C99.0033 88.007 99.9699 87.0337 100.936 86.0602C101.527 85.4672 102.117 84.8742 102.707 84.2813C102.977 84.0086 103.248 83.7359 103.526 83.4549C103.896 83.0841 103.896 83.0841 104.273 82.7058C104.487 82.49 104.702 82.2743 104.923 82.0519C106.215 80.8678 107.741 80.9269 109.401 81.1532Z" fill="#399BA4"/>
</svg>
