<svg width="190" height="190" viewBox="0 0 190 190" fill="none" xmlns="http://www.w3.org/2000/svg">
<path d="M81.5773 2.90637C82.0853 2.90583 82.5934 2.90524 83.1014 2.90459C85.7672 2.90119 88.433 2.89964 91.0987 2.89993C93.2537 2.90013 95.4086 2.89753 97.5635 2.89232C169.587 2.72222 169.587 2.72222 179.239 11.5039C187.689 23.8947 186.705 46.4191 186.736 60.8477C186.737 61.1906 186.738 61.5335 186.739 61.8868C186.745 63.7094 186.748 65.5319 186.75 67.3545C186.751 68.8223 186.756 70.2899 186.765 71.7577C187.042 120.486 187.042 120.486 178.333 129.783C177.475 130.482 176.598 130.767 175.528 130.996C175.737 131.354 175.737 131.354 175.95 131.719C178.82 136.789 180.466 141.665 180.46 147.496C180.462 147.865 180.465 148.233 180.467 148.613C180.474 149.82 180.476 151.026 180.477 152.232C180.479 153.077 180.482 153.922 180.484 154.766C180.489 156.531 180.49 158.296 180.49 160.061C180.489 162.318 180.5 164.576 180.512 166.833C180.521 168.576 180.522 170.318 180.522 172.06C180.523 172.892 180.526 173.724 180.532 174.557C180.539 175.721 180.537 176.885 180.532 178.049C180.536 178.39 180.541 178.731 180.545 179.082C180.521 181.579 179.982 183.654 178.207 185.487C177.996 185.622 177.786 185.756 177.569 185.895C177.358 186.036 177.148 186.177 176.931 186.322C175.233 187.19 173.448 187.085 171.584 187.083C171.094 187.085 171.094 187.085 170.595 187.087C169.498 187.09 168.402 187.09 167.306 187.091C166.521 187.093 165.736 187.095 164.951 187.097C162.816 187.101 160.682 187.104 158.547 187.105C157.213 187.107 155.88 187.108 154.546 187.11C150.374 187.115 146.202 187.118 142.03 187.12C137.214 187.122 132.397 187.128 127.581 187.139C123.858 187.147 120.136 187.151 116.413 187.151C114.189 187.151 111.966 187.154 109.742 187.16C107.651 187.166 105.559 187.167 103.467 187.164C102.7 187.164 101.933 187.165 101.165 187.169C100.117 187.174 99.0682 187.171 98.0194 187.168C97.5661 187.172 97.5661 187.172 97.1036 187.177C94.8247 187.157 92.6886 186.794 90.8967 185.267C90.7278 185.046 90.559 184.824 90.385 184.596C90.2094 184.373 90.0339 184.151 89.853 183.922C88.8201 182.439 89.0138 180.968 89.0208 179.224C89.0208 178.876 89.0207 178.528 89.0207 178.17C89.0209 177.018 89.0238 175.865 89.0267 174.713C89.0274 173.915 89.0279 173.117 89.0283 172.32C89.0297 170.217 89.0334 168.115 89.0375 166.013C89.0413 163.869 89.043 161.725 89.0448 159.58C89.0488 155.371 89.0552 151.162 89.063 146.953C88.8171 146.955 88.5713 146.956 88.3181 146.958C85.7412 146.975 83.1643 146.986 80.5874 146.994C79.6279 146.998 78.6684 147.003 77.7089 147.009C76.3234 147.018 74.9379 147.022 73.5524 147.026C73.1289 147.029 72.7055 147.033 72.2692 147.037C66.3854 147.038 60.391 146.023 56.0356 141.758C53.1289 138.549 53.1289 138.549 52.6958 136.562C52.4192 136.548 52.1426 136.533 51.8576 136.518C16.4559 134.576 16.4559 134.576 10.9405 129.142C4.85614 120.907 4.95813 107.152 4.19846 97.3425C4.17588 97.0536 4.1533 96.7647 4.13003 96.4671C3.46627 87.8223 3.26294 79.176 3.27072 70.5078C3.27095 70.0412 3.27117 69.5746 3.2714 69.0938C3.33366 20.9916 3.33366 20.9916 10.8129 11.3864C24.81 -1.26085 64.0758 2.91131 81.5773 2.90637ZM43.5112 10.3442C43.1235 10.3757 42.7358 10.4072 42.3364 10.4397C34.7313 11.0605 27.1047 11.7078 19.6684 13.4985C19.3883 13.5626 19.1083 13.6266 18.8197 13.6926C16.4893 14.3207 15.5731 15.444 14.3905 17.4805C3.44614 44.6123 5.7525 92.8683 14.4424 122.908C15.2905 124.73 15.9287 125.517 17.855 126.224C25.4018 128.471 33.2668 129.339 41.0759 130.161C41.7499 130.232 41.7499 130.232 42.4374 130.305C44.6318 130.525 46.7795 130.679 48.9848 130.625C48.1167 127.779 46.9261 125.143 45.645 122.461C44.6898 123.312 44.2306 124.136 43.6967 125.29C42.9752 126.627 42.8461 126.851 41.3542 127.401C40.0786 127.285 40.0786 127.285 39.174 126.728C38.4167 125.517 38.3537 124.579 38.5942 123.203C39.2692 121.498 40.1578 119.898 41.0186 118.282C41.1873 117.95 41.3559 117.619 41.5296 117.277C41.7657 116.833 41.7657 116.833 42.0066 116.379C42.6624 114.251 41.8235 112.348 40.9367 110.406C40.7387 109.967 40.5407 109.529 40.3366 109.077C40.127 108.621 39.9173 108.165 39.7075 107.71C39.2968 106.808 38.8876 105.905 38.4782 105.002C38.296 104.605 38.1137 104.207 37.9259 103.798C36.5863 100.773 36.6622 97.0405 37.6897 93.9099C39.3156 90.1178 41.8852 88.3684 45.645 86.8359C49.204 85.6869 52.7199 86.517 56.0356 87.9492C58.3955 83.5086 60.6975 79.0441 62.934 74.5401C63.4262 73.5491 63.9196 72.5586 64.4132 71.5683C65.8133 68.7591 67.2116 65.949 68.6088 63.1383C69.4708 61.4044 70.3342 59.6712 71.1986 57.9384C71.5258 57.2816 71.8525 56.6245 72.1786 55.9671C72.6309 55.0555 73.0849 54.1449 73.5394 53.2344C73.6731 52.9636 73.8069 52.6928 73.9447 52.4138C74.4574 51.3904 74.8885 50.5416 75.7036 49.7265C76.4806 49.6149 76.4806 49.6149 77.3735 49.6105C77.6682 49.6043 77.9628 49.5981 78.2664 49.5917C78.5229 49.6362 78.7793 49.6807 79.0434 49.7265C79.9698 51.1161 80.0079 52.1998 79.7856 53.8085C79.4264 54.8813 78.9193 55.8466 78.381 56.8396C78.2311 57.1279 78.0813 57.4161 77.9269 57.7131C77.431 58.6643 76.9268 59.6109 76.4226 60.5578C76.072 61.2269 75.722 61.8964 75.3727 62.5662C74.6331 63.9836 73.8908 65.3995 73.1471 66.8148C71.9799 69.0415 70.8333 71.2784 69.6922 73.5185C69.5037 73.8884 69.3153 74.2583 69.1211 74.6395C68.7459 75.3764 68.3708 76.1135 67.9958 76.8506C67.2909 78.2359 66.5857 79.6211 65.8784 81.0052C65.5476 81.6535 65.2185 82.3025 64.8909 82.9524C64.1113 84.4904 63.3072 85.9977 62.4235 87.4787C60.7631 90.1146 60.7631 90.1146 60.0979 93.0823C60.3967 94.0877 60.805 94.8677 61.3469 95.7653C61.7162 96.483 62.0838 97.2016 62.45 97.9209C62.6658 98.326 62.8816 98.7311 63.104 99.1485C64.4746 101.776 65.6211 104.518 66.8203 107.227C67.6602 109.119 68.5108 111.006 69.3694 112.89C69.974 114.217 70.5697 115.545 71.128 116.893C71.3119 117.325 71.4958 117.757 71.6853 118.202C71.8369 118.572 71.9884 118.942 72.1445 119.323C72.9513 120.568 73.5661 120.817 74.9614 121.348C76.3412 121.503 77.7104 121.488 79.0976 121.474C79.5106 121.474 79.9235 121.474 80.349 121.474C81.7104 121.474 83.0716 121.465 84.433 121.456C85.3783 121.454 86.3236 121.453 87.2689 121.452C89.5005 121.448 91.732 121.439 93.9635 121.428C96.5051 121.415 99.0467 121.409 101.588 121.404C106.814 121.392 112.04 121.372 117.266 121.348C116.022 120.093 114.751 118.91 113.416 117.753C108.079 112.895 104.969 106.014 104.574 98.8254C104.476 90.7484 107.028 83.6548 112.603 77.7122C117.874 72.7535 124.607 70.2217 131.808 70.0207C132.404 70.0458 133 70.0855 133.594 70.1367C134.173 70.1819 134.173 70.1819 134.764 70.228C142.228 71.0424 148.342 74.4824 153.262 80.1562C155.246 82.7741 156.616 85.6055 157.715 88.6913C157.894 89.1721 157.894 89.1721 158.076 89.6626C160.292 96.7738 158.917 104.584 155.587 111.064C153.465 114.973 150.713 117.696 147.149 120.272C146.84 120.504 146.53 120.737 146.211 120.977C146.211 121.099 146.211 121.221 146.211 121.348C146.724 121.353 146.724 121.353 147.247 121.358C148.544 121.375 149.841 121.398 151.138 121.425C151.694 121.435 152.25 121.443 152.805 121.448C157.68 121.497 162.382 122.008 166.668 124.548C168.994 126.071 168.994 126.071 171.631 126.421C173.391 125.772 174.559 125.181 175.481 123.505C178.861 115.275 179.221 105.638 179.833 96.8554C179.87 96.3326 179.87 96.3326 179.907 95.7992C180.464 87.5994 180.508 79.4147 180.472 71.1994C180.467 69.6807 180.469 68.162 180.471 66.6433C180.481 55.6018 180.245 44.6043 178.914 33.6303C178.883 33.3633 178.851 33.0962 178.819 32.8211C178.069 22.7706 178.069 22.7706 173.301 14.4726C160.441 8.85227 142.606 9.85383 128.77 9.27729C128.413 9.26225 128.056 9.24721 127.688 9.23172C121.049 8.95746 114.421 8.84582 107.776 8.84387C107.038 8.84297 106.3 8.84208 105.562 8.8411C103.247 8.83811 100.932 8.83717 98.6173 8.83743C96.5447 8.83763 94.4722 8.83504 92.3996 8.82982C76.0825 8.78976 59.7817 8.98121 43.5112 10.3442ZM115.411 83.8671C112.821 87.2673 111.254 90.7933 110.586 94.9999C115.619 96.6776 123.122 95.0794 127.802 92.914C131.965 90.7139 134.51 88.1867 136.756 84.044C137.305 83.1249 137.305 83.1249 138.047 82.7538C139.091 82.6147 139.091 82.6147 140.274 82.7538C141.637 83.9506 142.59 85.233 143.544 86.7663C145.752 90.1302 148.613 93.3481 152.63 94.5027C152.839 94.5443 153.047 94.586 153.262 94.6288C152.778 89.5953 149.963 84.5862 146.211 81.2695C136.658 73.4915 123.584 74.8555 115.411 83.8671ZM139.161 91.289C138.526 91.8914 137.908 92.5111 137.305 93.1445C137.305 93.3894 137.305 93.6343 137.305 93.8867C137.094 93.9842 136.882 94.0818 136.664 94.1824C135.764 94.6591 135.009 95.2196 134.197 95.8349C128.332 99.9632 121.468 100.867 114.483 101.146C114.107 101.162 113.731 101.178 113.344 101.195C112.425 101.234 111.505 101.272 110.586 101.309C111.909 108.301 115.313 112.534 120.977 116.523C121.383 116.786 121.788 117.049 122.206 117.319C123.204 118.008 123.204 118.008 123.575 118.75C123.664 119.569 123.748 120.389 123.83 121.208C124.212 123.971 124.993 125.64 127.145 127.408C129.405 129.004 131.662 129.007 134.336 128.769C136.654 128.131 138.217 126.658 139.532 124.687C140.22 123.245 140.306 121.968 140.39 120.397C140.503 119.058 140.56 118.501 141.341 117.382C142.036 116.867 142.734 116.358 143.44 115.859C148.442 112.3 151.37 108.071 152.891 102.051C152.891 101.561 152.891 101.071 152.891 100.566C152.563 100.467 152.236 100.367 151.898 100.265C146.882 98.6269 143.531 95.8513 139.903 92.0312C139.535 91.6638 139.535 91.6638 139.161 91.289ZM44.3925 94.4433C43.0372 96.5285 42.7077 98.0833 43.0473 100.566C43.5559 102.106 44.2123 103.554 44.9028 105.019C45.1293 105.544 45.354 106.07 45.5754 106.597C45.7935 107.102 45.7935 107.102 46.0161 107.617C47.1804 106.631 47.7678 105.382 48.4296 104.038C48.5499 103.798 48.6701 103.558 48.7939 103.31C49.0473 102.802 49.2996 102.294 49.5508 101.786C49.9332 101.012 50.3194 100.241 50.7062 99.4697C50.9526 98.9748 51.1988 98.4798 51.4448 97.9846C51.5592 97.7561 51.6736 97.5276 51.7916 97.2921C52.4582 95.937 52.9931 94.5873 53.438 93.1445C50.0558 91.4879 47.0765 91.618 44.3925 94.4433ZM56.7778 99.082C55.7057 101.204 54.6429 103.33 53.5865 105.46C53.2261 106.184 52.8636 106.907 52.4989 107.628C51.9747 108.667 51.4583 109.708 50.9432 110.751C50.779 111.072 50.6147 111.394 50.4455 111.725C49.5936 113.47 49.1031 114.581 49.727 116.523C49.9888 117.296 49.9888 117.296 50.3069 117.961C50.4829 118.344 50.6589 118.727 50.8403 119.121C53.259 118.808 55.2841 117.869 57.4953 116.881C58.1951 116.569 58.8978 116.264 59.6009 115.959C60.0417 115.764 60.4825 115.568 60.9367 115.367C61.3403 115.188 61.744 115.01 62.1598 114.826C63.2 114.369 63.2 114.369 63.4575 113.184C63.2723 112.488 63.2723 112.488 62.9205 111.763C62.7942 111.48 62.6678 111.198 62.5377 110.907C62.3978 110.605 62.2579 110.302 62.1137 109.99C61.9732 109.679 61.8326 109.367 61.6878 109.046C61.2374 108.05 60.782 107.057 60.3264 106.063C60.0204 105.389 59.7148 104.715 59.4095 104.04C58.6598 102.386 57.9055 100.733 57.1489 99.082C57.0264 99.082 56.904 99.082 56.7778 99.082ZM62.3616 120.919C62.1166 121.026 61.8716 121.133 61.6192 121.243C60.8392 121.585 60.0609 121.93 59.2827 122.275C58.7532 122.508 58.2236 122.74 57.6939 122.973C56.3977 123.541 55.103 124.113 53.8091 124.687C54.4482 126.669 55.2441 128.512 56.1284 130.393C56.2657 130.694 56.403 130.996 56.5444 131.306C58.5484 135.574 61.0813 138.69 65.5608 140.362C67.1904 140.894 68.5779 141.066 70.3039 141.08C70.7893 141.085 71.2748 141.09 71.7749 141.095C72.0334 141.097 72.2918 141.099 72.558 141.101C73.3692 141.107 74.1803 141.116 74.9914 141.125C77.297 141.151 79.6025 141.174 81.9082 141.193C83.3199 141.204 84.7316 141.22 86.1433 141.237C86.6806 141.243 87.218 141.248 87.7554 141.251C88.5068 141.255 89.2582 141.265 90.0095 141.274C90.4369 141.278 90.8642 141.282 91.3045 141.286C92.3763 141.384 92.998 141.536 93.8872 142.129C94.3109 142.976 94.308 143.453 94.3145 144.395C94.3176 144.714 94.3207 145.033 94.3239 145.361C94.3254 145.712 94.327 146.063 94.3286 146.424C94.3332 146.977 94.3332 146.977 94.3379 147.541C94.3444 148.344 94.35 149.146 94.3549 149.948C94.3627 151.216 94.3727 152.483 94.3833 153.751C94.4093 156.898 94.4313 160.046 94.4535 163.194C94.4724 165.853 94.4927 168.512 94.515 171.171C94.5249 172.423 94.5326 173.676 94.5403 174.929C94.5464 175.692 94.5527 176.455 94.5591 177.218C94.5606 177.569 94.5622 177.92 94.5638 178.283C94.4233 179.809 94.4233 179.809 95.0005 181.094C95.7566 181.13 96.514 181.139 97.271 181.138C97.5108 181.139 97.7505 181.139 97.9975 181.139C98.8067 181.14 99.6158 181.138 100.425 181.136C101.003 181.136 101.58 181.136 102.158 181.136C103.731 181.136 105.305 181.134 106.878 181.131C108.52 181.129 110.162 181.129 111.805 181.128C114.917 181.127 118.029 181.124 121.141 181.12C124.683 181.116 128.226 181.114 131.768 181.112C139.056 181.108 146.345 181.102 153.633 181.094C153.635 180.608 153.638 180.122 153.64 179.622C153.661 175.051 153.688 170.481 153.721 165.91C153.737 163.56 153.752 161.21 153.762 158.86C153.771 156.594 153.786 154.327 153.805 152.061C153.811 151.195 153.816 150.329 153.818 149.463C153.822 148.252 153.832 147.042 153.844 145.832C153.843 145.472 153.843 145.111 153.842 144.74C153.847 144.411 153.852 144.081 153.856 143.742C153.858 143.456 153.86 143.169 153.862 142.874C154.045 141.919 154.341 141.59 155.118 141.016C157.386 140.772 157.386 140.772 158.344 141.48C158.951 142.293 158.971 142.734 158.977 143.742C158.984 144.236 158.984 144.236 158.991 144.74C158.99 145.281 158.99 145.281 158.989 145.832C158.993 146.212 158.997 146.593 159.001 146.984C159.012 148.243 159.015 149.502 159.018 150.761C159.025 151.633 159.031 152.505 159.039 153.377C159.056 155.674 159.067 157.971 159.077 160.268C159.088 162.611 159.105 164.954 159.122 167.297C159.154 171.896 159.179 176.495 159.2 181.094C161.3 181.112 163.4 181.125 165.501 181.134C166.216 181.138 166.931 181.143 167.646 181.15C168.672 181.159 169.698 181.163 170.724 181.166C171.045 181.17 171.366 181.174 171.696 181.178C172.479 181.178 173.262 181.139 174.043 181.094C175.018 180.119 174.88 179.415 174.894 178.088C174.894 177.77 174.894 177.453 174.893 177.125C174.896 176.791 174.898 176.456 174.901 176.112C174.908 175 174.909 173.888 174.91 172.776C174.913 172.001 174.915 171.226 174.918 170.451C174.922 168.82 174.924 167.19 174.923 165.56C174.923 163.485 174.933 161.411 174.946 159.336C174.954 157.732 174.956 156.127 174.955 154.522C174.956 153.759 174.959 152.995 174.965 152.232C175.014 145.084 174.339 138.274 169.205 132.792C164.368 128.254 158.788 127.179 152.402 127.053C151.787 127.038 151.171 127.015 150.557 126.985C146.915 126.699 146.915 126.699 143.707 128.084C142.923 129.048 142.923 129.048 142.347 130.069C140.886 132.371 137.867 133.49 135.313 134.162C130.961 134.937 127.109 134.045 123.389 131.721C122.379 130.932 121.845 130.154 121.144 129.088C120.305 128.019 119.8 127.391 118.506 126.946C117.329 126.825 116.202 126.818 115.019 126.853C114.578 126.852 114.138 126.85 113.684 126.848C112.484 126.846 111.285 126.861 110.085 126.883C108.824 126.901 107.563 126.897 106.302 126.895C103.914 126.895 101.526 126.912 99.1384 126.937C94.8662 126.98 90.5939 126.997 86.3215 127.003C85.0688 127.005 83.8163 127.011 82.5637 127.026C81.1658 127.043 79.7681 127.051 78.3702 127.058C77.9601 127.065 77.5499 127.073 77.1273 127.081C74.1174 127.083 72.0828 126.345 69.511 124.85C68.1363 123.401 67.317 121.639 66.4262 119.863C64.8266 119.863 63.7841 120.282 62.3616 120.919Z" fill="#399BA4"/>
<path d="M40.1233 26.5766C40.7166 26.5716 40.7166 26.5716 41.322 26.5665C41.7581 26.5684 42.1942 26.5704 42.6436 26.5725C43.1057 26.5702 43.5678 26.5679 44.0439 26.5656C45.329 26.5605 46.614 26.5604 47.8991 26.5624C49.2841 26.5634 50.6691 26.558 52.0541 26.5535C54.7684 26.5456 57.4826 26.544 60.1969 26.5446C62.4024 26.5451 64.608 26.5437 66.8135 26.5409C67.4481 26.5402 68.0827 26.5394 68.7173 26.5386C69.0331 26.5382 69.349 26.5378 69.6744 26.5374C75.6513 26.5304 81.6282 26.5308 87.6051 26.5333C93.0766 26.5354 98.548 26.5277 104.019 26.5154C109.634 26.5029 115.248 26.4972 120.862 26.499C124.015 26.4998 127.169 26.4978 130.322 26.4886C133.007 26.4808 135.691 26.4795 138.376 26.4865C139.746 26.4899 141.116 26.4903 142.487 26.4827C143.971 26.4745 145.454 26.4806 146.939 26.4882C147.591 26.4812 147.591 26.4812 148.258 26.4741C151.153 26.5061 151.153 26.5061 152.428 27.5769C153.064 28.948 152.945 29.7359 152.52 31.1719C151.414 32.2456 150.624 32.4244 149.107 32.4243C148.714 32.427 148.322 32.4296 147.917 32.4324C147.487 32.4297 147.056 32.4269 146.612 32.4241C146.154 32.4256 145.696 32.427 145.225 32.4286C143.953 32.4315 142.682 32.4295 141.41 32.4253C140.039 32.422 138.668 32.4252 137.297 32.4275C134.611 32.431 131.924 32.4286 129.238 32.4241C126.111 32.419 122.985 32.4196 119.858 32.4204C114.28 32.4216 108.701 32.4172 103.123 32.41C97.7079 32.4029 92.2925 32.4003 86.877 32.4024C80.983 32.4046 75.089 32.4046 69.1949 32.4003C68.5667 32.3999 67.9384 32.3994 67.3102 32.399C67.001 32.3988 66.6919 32.3985 66.3734 32.3983C64.1928 32.3969 62.0122 32.397 59.8315 32.3977C57.1749 32.3985 54.5182 32.3966 51.8615 32.3912C50.5055 32.3885 49.1495 32.387 47.7935 32.3887C46.325 32.3905 44.8566 32.3865 43.3881 32.382C42.9574 32.3834 42.5267 32.3848 42.0829 32.3862C41.6905 32.3841 41.2981 32.3819 40.8937 32.3797C40.5547 32.3793 40.2156 32.379 39.8663 32.3787C38.8976 32.2782 38.2987 32.0652 37.4806 31.543C36.9026 30.3869 36.8999 29.0922 37.1095 27.8321C37.998 26.6484 38.6812 26.5791 40.1233 26.5766Z" fill="#399BA4"/>
<path d="M109.063 48.8405C109.438 48.8369 109.812 48.8332 110.198 48.8294C110.609 48.8311 111.02 48.8327 111.443 48.8345C112.092 48.8306 112.092 48.8306 112.754 48.8267C114.188 48.8199 115.622 48.8214 117.057 48.8235C117.8 48.8222 118.543 48.821 119.286 48.8193C121.622 48.8141 123.958 48.8147 126.295 48.8189C128.706 48.8231 131.117 48.8179 133.529 48.808C135.598 48.7998 137.668 48.7973 139.738 48.7995C140.974 48.8007 142.21 48.7992 143.447 48.7934C144.825 48.7879 146.203 48.7918 147.581 48.7982C147.991 48.7946 148.402 48.791 148.825 48.7874C149.387 48.7928 149.387 48.7928 149.96 48.7984C150.286 48.7985 150.612 48.7986 150.948 48.7986C151.777 48.9844 151.777 48.9844 152.443 49.691C152.953 50.5774 153.004 50.9745 152.867 51.9763C152.84 52.2256 152.813 52.4748 152.785 52.7316C152.416 53.7123 151.918 54.0018 151.035 54.5508C150.18 54.693 150.18 54.693 149.221 54.6972C148.856 54.7014 148.491 54.7056 148.116 54.7099C147.718 54.7089 147.32 54.7078 146.91 54.7066C146.49 54.7098 146.069 54.7129 145.636 54.7162C144.243 54.7249 142.85 54.7252 141.458 54.7248C140.491 54.7274 139.524 54.7303 138.557 54.7333C136.53 54.7387 134.502 54.739 132.475 54.7367C130.133 54.7343 127.791 54.7427 125.449 54.7565C123.194 54.7693 120.94 54.7717 118.685 54.7702C117.726 54.7708 116.767 54.7744 115.809 54.781C114.469 54.7892 113.13 54.7857 111.79 54.7791C111.393 54.784 110.996 54.789 110.587 54.794C108.804 54.7738 107.905 54.7587 106.429 53.6929C105.762 52.6953 105.762 52.6953 105.762 51.3501C106.349 49.3696 107.011 48.8462 109.063 48.8405Z" fill="#399BA4"/>
<path d="M41.2302 48.804C41.9027 48.8006 41.9027 48.8006 42.5886 48.7971C43.0696 48.8025 43.5505 48.8078 44.046 48.8133C44.5473 48.8142 45.0486 48.8145 45.5499 48.8143C46.5984 48.8155 47.6466 48.8216 48.6951 48.8316C50.0373 48.8442 51.3794 48.847 52.7217 48.8465C53.7561 48.8467 54.7904 48.8507 55.8247 48.8561C56.5598 48.8596 57.2949 48.8609 58.03 48.8622C58.7006 48.8693 58.7006 48.8693 59.3848 48.8765C59.7781 48.8793 60.1713 48.8822 60.5765 48.8851C61.6102 48.9851 62.2171 49.1714 63.0863 49.7265C63.7995 50.6775 63.8323 51.1485 63.7589 52.3474C63.4513 53.4593 63.2454 53.8657 62.3441 54.5507C61.3516 55.047 60.5805 54.9772 59.4691 54.9875C59.0219 54.9923 58.5748 54.997 58.1141 55.0019C57.3858 55.0061 57.3858 55.0061 56.6429 55.0103C56.2727 55.0125 56.2727 55.0125 55.8952 55.0148C54.5889 55.0226 53.2827 55.0279 51.9764 55.0314C50.6287 55.0355 49.2811 55.0482 47.9335 55.063C46.896 55.0727 45.8585 55.0758 44.8209 55.0771C44.0831 55.0798 43.3454 55.0896 42.6077 55.0995C42.157 55.0984 41.7063 55.0974 41.242 55.0962C40.6484 55.0995 40.6484 55.0995 40.0427 55.1028C38.6992 54.8771 38.0775 54.3772 37.1097 53.4375C36.8633 52.6953 36.8633 52.6953 36.8778 51.9531C36.873 51.7082 36.8682 51.4632 36.8633 51.2109C37.531 49.1998 39.3262 48.7989 41.2302 48.804Z" fill="#399BA4"/>
</svg>
