<svg width="190" height="190" viewBox="0 0 190 190" fill="none" xmlns="http://www.w3.org/2000/svg">
<path d="M81.5768 2.90637C82.0849 2.90583 82.5929 2.90524 83.1009 2.90459C85.7667 2.90119 88.4325 2.89964 91.0982 2.89993C93.2532 2.90013 95.4081 2.89753 97.563 2.89232C169.586 2.72222 169.586 2.72222 179.238 11.5039C187.688 23.8947 186.705 46.4191 186.736 60.8477C186.737 61.1906 186.738 61.5335 186.739 61.8868C186.744 63.7094 186.748 65.5319 186.749 67.3545C186.751 68.8223 186.756 70.2899 186.765 71.7577C187.041 120.486 187.041 120.486 178.332 129.783C177.474 130.482 176.598 130.767 175.527 130.996C175.736 131.354 175.736 131.354 175.949 131.719C178.82 136.789 180.465 141.665 180.459 147.496C180.462 147.865 180.464 148.233 180.467 148.613C180.474 149.82 180.475 151.026 180.476 152.232C180.479 153.077 180.481 153.922 180.484 154.766C180.488 156.531 180.49 158.296 180.489 160.061C180.489 162.318 180.499 164.576 180.512 166.833C180.52 168.576 180.522 170.318 180.521 172.06C180.522 172.892 180.525 173.724 180.531 174.557C180.538 175.721 180.536 176.885 180.532 178.049C180.536 178.39 180.54 178.731 180.544 179.082C180.52 181.579 179.981 183.654 178.206 185.487C177.996 185.622 177.785 185.756 177.568 185.895C177.358 186.036 177.147 186.177 176.931 186.322C175.232 187.19 173.448 187.085 171.584 187.083C171.094 187.085 171.094 187.085 170.594 187.087C169.498 187.09 168.402 187.09 167.306 187.091C166.521 187.093 165.735 187.095 164.95 187.097C162.816 187.101 160.681 187.104 158.547 187.105C157.213 187.107 155.879 187.108 154.546 187.11C150.374 187.115 146.202 187.118 142.03 187.12C137.213 187.122 132.397 187.128 127.58 187.139C123.858 187.147 120.135 187.151 116.413 187.151C114.189 187.151 111.966 187.154 109.742 187.16C107.65 187.166 105.558 187.167 103.466 187.164C102.699 187.164 101.932 187.165 101.165 187.169C100.116 187.174 99.0677 187.171 98.0189 187.168C97.5656 187.172 97.5656 187.172 97.1031 187.177C94.8242 187.157 92.6881 186.794 90.8962 185.267C90.7273 185.046 90.5585 184.824 90.3845 184.596C90.2089 184.373 90.0334 184.151 89.8525 183.922C88.8196 182.439 89.0133 180.968 89.0203 179.224C89.0203 178.876 89.0202 178.528 89.0202 178.17C89.0204 177.018 89.0233 175.865 89.0262 174.713C89.0269 173.915 89.0275 173.117 89.0278 172.32C89.0292 170.217 89.0329 168.115 89.037 166.013C89.0408 163.869 89.0425 161.725 89.0443 159.58C89.0483 155.371 89.0547 151.162 89.0625 146.953C88.8167 146.955 88.5708 146.956 88.3176 146.958C85.7407 146.975 83.1638 146.986 80.5869 146.994C79.6274 146.998 78.6679 147.003 77.7084 147.009C76.3229 147.018 74.9374 147.022 73.5519 147.026C73.1284 147.029 72.705 147.033 72.2687 147.037C66.3849 147.038 60.3905 146.023 56.0351 141.758C53.1284 138.549 53.1284 138.549 52.6953 136.562C52.4187 136.548 52.1421 136.533 51.8572 136.518C16.4554 134.576 16.4554 134.576 10.94 129.142C4.85566 120.907 4.95764 107.152 4.19797 97.3425C4.17539 97.0536 4.15281 96.7647 4.12954 96.4671C3.46578 87.8223 3.26245 79.176 3.27023 70.5078C3.27046 70.0412 3.27068 69.5746 3.27091 69.0938C3.33318 20.9916 3.33318 20.9916 10.8124 11.3864C24.8095 -1.26085 64.0753 2.91131 81.5768 2.90637ZM43.5107 10.3442C43.123 10.3757 42.7353 10.4072 42.3359 10.4397C34.7308 11.0605 27.1042 11.7078 19.6679 13.4985C19.3879 13.5626 19.1078 13.6266 18.8192 13.6926C16.4888 14.3207 15.5726 15.444 14.39 17.4805C3.44565 44.6123 5.75201 92.8683 14.4419 122.908C15.29 124.73 15.9282 125.517 17.8545 126.224C25.4013 128.471 33.2663 129.339 41.0754 130.161C41.7494 130.232 41.7494 130.232 42.4369 130.305C44.6314 130.525 46.779 130.679 48.9843 130.625C48.1162 127.779 46.9256 125.143 45.6445 122.461C44.6893 123.312 44.2301 124.136 43.6963 125.29C42.9747 126.627 42.8456 126.851 41.3537 127.401C40.0781 127.285 40.0781 127.285 39.1736 126.728C38.4162 125.517 38.3532 124.579 38.5937 123.203C39.2687 121.498 40.1573 119.898 41.0182 118.282C41.1868 117.95 41.3554 117.619 41.5291 117.277C41.7652 116.833 41.7652 116.833 42.0061 116.379C42.6619 114.251 41.823 112.348 40.9362 110.406C40.7382 109.967 40.5402 109.529 40.3361 109.077C40.1265 108.621 39.9168 108.165 39.707 107.71C39.2963 106.808 38.8871 105.905 38.4778 105.002C38.2955 104.605 38.1132 104.207 37.9255 103.798C36.5858 100.773 36.6617 97.0405 37.6892 93.9099C39.3152 90.1178 41.8848 88.3684 45.6445 86.8359C49.2035 85.6869 52.7194 86.517 56.0351 87.9492C58.395 83.5086 60.697 79.0441 62.9335 74.5401C63.4257 73.5491 63.9191 72.5586 64.4127 71.5683C65.8128 68.7591 67.2111 65.949 68.6083 63.1383C69.4703 61.4044 70.3337 59.6712 71.1981 57.9384C71.5253 57.2816 71.852 56.6245 72.1781 55.9671C72.6304 55.0555 73.0844 54.1449 73.5389 53.2344C73.6726 52.9636 73.8064 52.6928 73.9442 52.4138C74.457 51.3904 74.888 50.5416 75.7031 49.7265C76.4801 49.6149 76.4801 49.6149 77.373 49.6105C77.6677 49.6043 77.9624 49.5981 78.266 49.5917C78.5224 49.6362 78.7788 49.6807 79.0429 49.7265C79.9693 51.1161 80.0074 52.1998 79.7851 53.8085C79.4259 54.8813 78.9188 55.8466 78.3805 56.8396C78.2306 57.1279 78.0808 57.4161 77.9264 57.7131C77.4305 58.6643 76.9263 59.6109 76.4221 60.5578C76.0715 61.2269 75.7215 61.8964 75.3722 62.5662C74.6326 63.9836 73.8903 65.3995 73.1466 66.8148C71.9794 69.0415 70.8328 71.2784 69.6917 73.5185C69.5032 73.8884 69.3148 74.2583 69.1207 74.6395C68.7454 75.3764 68.3703 76.1135 67.9953 76.8506C67.2904 78.2359 66.5852 79.6211 65.8779 81.0052C65.5472 81.6535 65.218 82.3025 64.8904 82.9524C64.1108 84.4904 63.3067 85.9977 62.423 87.4787C60.7626 90.1146 60.7626 90.1146 60.0974 93.0823C60.3963 94.0877 60.8045 94.8677 61.3464 95.7653C61.7157 96.483 62.0833 97.2016 62.4495 97.9209C62.6653 98.326 62.8811 98.7311 63.1035 99.1485C64.4741 101.776 65.6206 104.518 66.8198 107.227C67.6597 109.119 68.5103 111.006 69.3689 112.89C69.9736 114.217 70.5692 115.545 71.1275 116.893C71.3114 117.325 71.4953 117.757 71.6848 118.202C71.8364 118.572 71.9879 118.942 72.144 119.323C72.9508 120.568 73.5656 120.817 74.9609 121.348C76.3407 121.503 77.7099 121.488 79.0971 121.474C79.5101 121.474 79.923 121.474 80.3485 121.474C81.7099 121.474 83.0711 121.465 84.4325 121.456C85.3778 121.454 86.3231 121.453 87.2684 121.452C89.5 121.448 91.7315 121.439 93.963 121.428C96.5046 121.415 99.0462 121.409 101.588 121.404C106.814 121.392 112.04 121.372 117.266 121.348C116.022 120.093 114.75 118.91 113.416 117.753C108.079 112.895 104.969 106.014 104.573 98.8254C104.475 90.7484 107.028 83.6548 112.602 77.7122C117.874 72.7535 124.607 70.2217 131.808 70.0207C132.404 70.0458 132.999 70.0855 133.594 70.1367C134.173 70.1819 134.173 70.1819 134.764 70.228C142.227 71.0424 148.342 74.4824 153.262 80.1562C155.246 82.7741 156.615 85.6055 157.715 88.6913C157.893 89.1721 157.893 89.1721 158.076 89.6626C160.292 96.7738 158.917 104.584 155.586 111.064C153.465 114.973 150.713 117.696 147.149 120.272C146.839 120.504 146.53 120.737 146.211 120.977C146.211 121.099 146.211 121.221 146.211 121.348C146.724 121.353 146.724 121.353 147.247 121.358C148.544 121.375 149.84 121.398 151.137 121.425C151.693 121.435 152.249 121.443 152.805 121.448C157.68 121.497 162.382 122.008 166.667 124.548C168.993 126.071 168.993 126.071 171.631 126.421C173.391 125.772 174.558 125.181 175.481 123.505C178.861 115.275 179.22 105.638 179.833 96.8554C179.869 96.3326 179.869 96.3326 179.906 95.7992C180.464 87.5994 180.508 79.4147 180.471 71.1994C180.466 69.6807 180.468 68.162 180.47 66.6433C180.48 55.6018 180.245 44.6043 178.914 33.6303C178.882 33.3633 178.851 33.0962 178.818 32.8211C178.069 22.7706 178.069 22.7706 173.301 14.4726C160.44 8.85227 142.605 9.85383 128.77 9.27729C128.413 9.26225 128.056 9.24721 127.688 9.23172C121.048 8.95746 114.42 8.84582 107.775 8.84387C107.037 8.84297 106.299 8.84208 105.561 8.8411C103.247 8.83811 100.932 8.83717 98.6168 8.83743C96.5442 8.83763 94.4717 8.83504 92.3991 8.82982C76.082 8.78976 59.7812 8.98121 43.5107 10.3442ZM115.41 83.8671C112.82 87.2673 111.253 90.7933 110.586 94.9999C115.619 96.6776 123.121 95.0794 127.801 92.914C131.964 90.7139 134.509 88.1867 136.755 84.044C137.305 83.1249 137.305 83.1249 138.047 82.7538C139.091 82.6147 139.091 82.6147 140.273 82.7538C141.637 83.9506 142.589 85.233 143.544 86.7663C145.752 90.1302 148.612 93.3481 152.63 94.5027C152.838 94.5443 153.047 94.586 153.262 94.6288C152.778 89.5953 149.962 84.5862 146.211 81.2695C136.657 73.4915 123.584 74.8555 115.41 83.8671ZM139.16 91.289C138.526 91.8914 137.908 92.5111 137.305 93.1445C137.305 93.3894 137.305 93.6343 137.305 93.8867C137.093 93.9842 136.882 94.0818 136.664 94.1824C135.763 94.6591 135.009 95.2196 134.197 95.8349C128.331 99.9632 121.468 100.867 114.482 101.146C114.106 101.162 113.73 101.178 113.343 101.195C112.424 101.234 111.505 101.272 110.586 101.309C111.909 108.301 115.313 112.534 120.977 116.523C121.382 116.786 121.788 117.049 122.206 117.319C123.203 118.008 123.203 118.008 123.574 118.75C123.663 119.569 123.748 120.389 123.829 121.208C124.211 123.971 124.992 125.64 127.145 127.408C129.405 129.004 131.661 129.007 134.336 128.769C136.653 128.131 138.216 126.658 139.531 124.687C140.22 123.245 140.305 121.968 140.389 120.397C140.503 119.058 140.559 118.501 141.34 117.382C142.035 116.867 142.734 116.358 143.439 115.859C148.442 112.3 151.37 108.071 152.891 102.051C152.891 101.561 152.891 101.071 152.891 100.566C152.563 100.467 152.235 100.367 151.898 100.265C146.882 98.6269 143.531 95.8513 139.902 92.0312C139.535 91.6638 139.535 91.6638 139.16 91.289ZM44.3921 94.4433C43.0367 96.5285 42.7072 98.0833 43.0468 100.566C43.5554 102.106 44.2118 103.554 44.9023 105.019C45.1288 105.544 45.3535 106.07 45.5749 106.597C45.7931 107.102 45.7931 107.102 46.0156 107.617C47.1799 106.631 47.7673 105.382 48.4292 104.038C48.5494 103.798 48.6696 103.558 48.7934 103.31C49.0468 102.802 49.2991 102.294 49.5503 101.786C49.9327 101.012 50.3189 100.241 50.7057 99.4697C50.9521 98.9748 51.1983 98.4798 51.4443 97.9846C51.5587 97.7561 51.6732 97.5276 51.7911 97.2921C52.4577 95.937 52.9926 94.5873 53.4375 93.1445C50.0553 91.4879 47.0761 91.618 44.3921 94.4433ZM56.7773 99.082C55.7052 101.204 54.6424 103.33 53.586 105.46C53.2256 106.184 52.8631 106.907 52.4984 107.628C51.9743 108.667 51.4578 109.708 50.9427 110.751C50.7785 111.072 50.6142 111.394 50.445 111.725C49.5931 113.47 49.1026 114.581 49.7265 116.523C49.9884 117.296 49.9884 117.296 50.3064 117.961C50.4824 118.344 50.6584 118.727 50.8398 119.121C53.2585 118.808 55.2836 117.869 57.4948 116.881C58.1946 116.569 58.8973 116.264 59.6004 115.959C60.0412 115.764 60.482 115.568 60.9362 115.367C61.3398 115.188 61.7435 115.01 62.1594 114.826C63.1995 114.369 63.1995 114.369 63.457 113.184C63.2718 112.488 63.2718 112.488 62.92 111.763C62.7937 111.48 62.6674 111.198 62.5372 110.907C62.3973 110.605 62.2574 110.302 62.1132 109.99C61.9727 109.679 61.8321 109.367 61.6873 109.046C61.2369 108.05 60.7815 107.057 60.3259 106.063C60.0199 105.389 59.7143 104.715 59.409 104.04C58.6593 102.386 57.905 100.733 57.1484 99.082C57.0259 99.082 56.9035 99.082 56.7773 99.082ZM62.3611 120.919C62.1161 121.026 61.8711 121.133 61.6187 121.243C60.8387 121.585 60.0605 121.93 59.2822 122.275C58.7527 122.508 58.2231 122.74 57.6935 122.973C56.3972 123.541 55.1025 124.113 53.8086 124.687C54.4477 126.669 55.2436 128.512 56.1279 130.393C56.2652 130.694 56.4025 130.996 56.5439 131.306C58.548 135.574 61.0808 138.69 65.5603 140.362C67.1899 140.894 68.5774 141.066 70.3034 141.08C70.7888 141.085 71.2743 141.09 71.7745 141.095C72.0329 141.097 72.2913 141.099 72.5576 141.101C73.3687 141.107 74.1798 141.116 74.9909 141.125C77.2965 141.151 79.6021 141.174 81.9077 141.193C83.3194 141.204 84.7311 141.22 86.1428 141.237C86.6801 141.243 87.2175 141.248 87.7549 141.251C88.5063 141.255 89.2577 141.265 90.009 141.274C90.4364 141.278 90.8637 141.282 91.304 141.286C92.3758 141.384 92.9975 141.536 93.8867 142.129C94.3104 142.976 94.3075 143.453 94.314 144.395C94.3171 144.714 94.3202 145.033 94.3234 145.361C94.3249 145.712 94.3265 146.063 94.3281 146.424C94.3327 146.977 94.3327 146.977 94.3374 147.541C94.3439 148.344 94.3495 149.146 94.3544 149.948C94.3622 151.216 94.3722 152.483 94.3829 153.751C94.4088 156.898 94.4308 160.046 94.453 163.194C94.4719 165.853 94.4922 168.512 94.5145 171.171C94.5244 172.423 94.5321 173.676 94.5398 174.929C94.5459 175.692 94.5522 176.455 94.5586 177.218C94.5601 177.569 94.5617 177.92 94.5633 178.283C94.4228 179.809 94.4228 179.809 95 181.094C95.7561 181.13 96.5135 181.139 97.2705 181.138C97.5103 181.139 97.75 181.139 97.997 181.139C98.8062 181.14 99.6153 181.138 100.424 181.136C101.002 181.136 101.58 181.136 102.158 181.136C103.731 181.136 105.304 181.134 106.877 181.131C108.52 181.129 110.162 181.129 111.804 181.128C114.916 181.127 118.029 181.124 121.141 181.12C124.683 181.116 128.225 181.114 131.767 181.112C139.056 181.108 146.344 181.102 153.633 181.094C153.635 180.608 153.637 180.122 153.639 179.622C153.661 175.051 153.688 170.481 153.72 165.91C153.737 163.56 153.751 161.21 153.761 158.86C153.771 156.594 153.786 154.327 153.805 152.061C153.811 151.195 153.815 150.329 153.817 149.463C153.821 148.252 153.831 147.042 153.843 145.832C153.843 145.472 153.842 145.111 153.842 144.74C153.846 144.411 153.851 144.081 153.856 143.742C153.858 143.456 153.859 143.169 153.861 142.874C154.044 141.919 154.34 141.59 155.117 141.016C157.386 140.772 157.386 140.772 158.343 141.48C158.95 142.293 158.97 142.734 158.976 143.742C158.983 144.236 158.983 144.236 158.99 144.74C158.989 145.281 158.989 145.281 158.989 145.832C158.992 146.212 158.996 146.593 159 146.984C159.011 148.243 159.015 149.502 159.018 150.761C159.024 151.633 159.031 152.505 159.038 153.377C159.056 155.674 159.067 157.971 159.077 160.268C159.088 162.611 159.105 164.954 159.122 167.297C159.154 171.896 159.179 176.495 159.199 181.094C161.3 181.112 163.4 181.125 165.5 181.134C166.215 181.138 166.93 181.143 167.645 181.15C168.671 181.159 169.697 181.163 170.723 181.166C171.044 181.17 171.365 181.174 171.696 181.178C172.479 181.178 173.261 181.139 174.043 181.094C175.018 180.119 174.879 179.415 174.894 178.088C174.894 177.77 174.893 177.453 174.893 177.125C174.895 176.791 174.898 176.456 174.9 176.112C174.908 175 174.909 173.888 174.91 172.776C174.912 172.001 174.915 171.226 174.917 170.451C174.922 168.82 174.923 167.19 174.923 165.56C174.923 163.485 174.933 161.411 174.945 159.336C174.954 157.732 174.955 156.127 174.955 154.522C174.956 153.759 174.959 152.995 174.965 152.232C175.014 145.084 174.338 138.274 169.204 132.792C164.367 128.254 158.788 127.179 152.401 127.053C151.786 127.038 151.171 127.015 150.556 126.985C146.915 126.699 146.915 126.699 143.707 128.084C142.922 129.048 142.922 129.048 142.347 130.069C140.885 132.371 137.866 133.49 135.313 134.162C130.96 134.937 127.109 134.045 123.388 131.721C122.379 130.932 121.844 130.154 121.143 129.088C120.304 128.019 119.799 127.391 118.506 126.946C117.328 126.825 116.201 126.818 115.018 126.853C114.578 126.852 114.138 126.85 113.684 126.848C112.483 126.846 111.284 126.861 110.084 126.883C108.823 126.901 107.563 126.897 106.302 126.895C103.913 126.895 101.526 126.912 99.1379 126.937C94.8657 126.98 90.5934 126.997 86.321 127.003C85.0683 127.005 83.8158 127.011 82.5632 127.026C81.1653 127.043 79.7676 127.051 78.3697 127.058C77.9596 127.065 77.5494 127.073 77.1269 127.081C74.1169 127.083 72.0823 126.345 69.5105 124.85C68.1358 123.401 67.3165 121.639 66.4258 119.863C64.8261 119.863 63.7836 120.282 62.3611 120.919Z" fill="#204F4E"/>
<path d="M40.1233 26.5766C40.7166 26.5716 40.7166 26.5716 41.322 26.5665C41.7581 26.5684 42.1942 26.5704 42.6436 26.5725C43.1057 26.5702 43.5678 26.5679 44.0439 26.5656C45.329 26.5605 46.614 26.5604 47.8991 26.5624C49.2841 26.5634 50.6691 26.558 52.0541 26.5535C54.7684 26.5456 57.4826 26.544 60.1969 26.5446C62.4024 26.5451 64.608 26.5437 66.8135 26.5409C67.4481 26.5402 68.0827 26.5394 68.7173 26.5386C69.0331 26.5382 69.349 26.5378 69.6744 26.5374C75.6513 26.5304 81.6282 26.5308 87.6051 26.5333C93.0766 26.5354 98.548 26.5277 104.019 26.5154C109.634 26.5029 115.248 26.4972 120.862 26.499C124.015 26.4998 127.169 26.4978 130.322 26.4886C133.007 26.4808 135.691 26.4795 138.376 26.4865C139.746 26.4899 141.116 26.4903 142.487 26.4827C143.971 26.4745 145.454 26.4806 146.939 26.4882C147.591 26.4812 147.591 26.4812 148.258 26.4741C151.153 26.5061 151.153 26.5061 152.428 27.5769C153.064 28.948 152.945 29.7359 152.52 31.1719C151.414 32.2456 150.624 32.4244 149.107 32.4243C148.714 32.427 148.322 32.4296 147.917 32.4324C147.487 32.4297 147.056 32.4269 146.612 32.4241C146.154 32.4256 145.696 32.427 145.225 32.4286C143.953 32.4315 142.682 32.4295 141.41 32.4253C140.039 32.422 138.668 32.4252 137.297 32.4275C134.611 32.431 131.924 32.4286 129.238 32.4241C126.111 32.419 122.985 32.4196 119.858 32.4204C114.28 32.4216 108.701 32.4172 103.123 32.41C97.7079 32.4029 92.2925 32.4003 86.877 32.4024C80.983 32.4046 75.089 32.4046 69.1949 32.4003C68.5667 32.3999 67.9384 32.3994 67.3102 32.399C67.001 32.3988 66.6919 32.3985 66.3734 32.3983C64.1928 32.3969 62.0122 32.397 59.8315 32.3977C57.1749 32.3985 54.5182 32.3966 51.8615 32.3912C50.5055 32.3885 49.1495 32.387 47.7935 32.3887C46.325 32.3905 44.8566 32.3865 43.3881 32.382C42.9574 32.3834 42.5267 32.3848 42.0829 32.3862C41.6905 32.3841 41.2981 32.3819 40.8937 32.3797C40.5547 32.3793 40.2156 32.379 39.8663 32.3787C38.8976 32.2782 38.2987 32.0652 37.4806 31.543C36.9026 30.3869 36.8999 29.0922 37.1095 27.8321C37.998 26.6484 38.6812 26.5791 40.1233 26.5766Z" fill="#204F4E"/>
<path d="M109.063 48.8405C109.438 48.8369 109.812 48.8332 110.198 48.8294C110.609 48.8311 111.02 48.8327 111.443 48.8345C112.092 48.8306 112.092 48.8306 112.754 48.8267C114.188 48.8199 115.622 48.8214 117.057 48.8235C117.8 48.8222 118.543 48.821 119.286 48.8193C121.622 48.8141 123.958 48.8147 126.295 48.8189C128.706 48.8231 131.117 48.8179 133.529 48.808C135.598 48.7998 137.668 48.7973 139.738 48.7995C140.974 48.8007 142.21 48.7992 143.447 48.7934C144.825 48.7879 146.203 48.7918 147.581 48.7982C147.991 48.7946 148.402 48.791 148.825 48.7874C149.387 48.7928 149.387 48.7928 149.96 48.7984C150.286 48.7985 150.612 48.7986 150.948 48.7986C151.777 48.9844 151.777 48.9844 152.443 49.691C152.953 50.5774 153.004 50.9745 152.867 51.9763C152.84 52.2256 152.813 52.4748 152.785 52.7316C152.416 53.7123 151.918 54.0018 151.035 54.5508C150.18 54.693 150.18 54.693 149.221 54.6972C148.856 54.7014 148.491 54.7056 148.116 54.7099C147.718 54.7089 147.32 54.7078 146.91 54.7066C146.49 54.7098 146.069 54.7129 145.636 54.7162C144.243 54.7249 142.85 54.7252 141.458 54.7248C140.491 54.7274 139.524 54.7303 138.557 54.7333C136.53 54.7387 134.502 54.739 132.475 54.7367C130.133 54.7343 127.791 54.7427 125.449 54.7565C123.194 54.7693 120.94 54.7717 118.685 54.7702C117.726 54.7708 116.767 54.7744 115.809 54.781C114.469 54.7892 113.13 54.7857 111.79 54.7791C111.393 54.784 110.996 54.789 110.587 54.794C108.804 54.7738 107.905 54.7587 106.429 53.6929C105.762 52.6953 105.762 52.6953 105.762 51.3501C106.349 49.3696 107.011 48.8462 109.063 48.8405Z" fill="#204F4E"/>
<path d="M41.2298 48.804C41.9022 48.8006 41.9022 48.8006 42.5882 48.7971C43.0691 48.8025 43.55 48.8078 44.0455 48.8133C44.5468 48.8142 45.0481 48.8145 45.5494 48.8143C46.5979 48.8155 47.6462 48.8216 48.6946 48.8316C50.0369 48.8442 51.3789 48.847 52.7212 48.8465C53.7556 48.8467 54.7899 48.8507 55.8243 48.8561C56.5593 48.8596 57.2944 48.8609 58.0295 48.8622C58.7002 48.8693 58.7002 48.8693 59.3844 48.8765C59.7776 48.8793 60.1709 48.8822 60.576 48.8851C61.6097 48.9851 62.2166 49.1714 63.0858 49.7265C63.799 50.6775 63.8318 51.1485 63.7584 52.3474C63.4508 53.4593 63.2449 53.8657 62.3436 54.5507C61.3511 55.047 60.58 54.9772 59.4686 54.9875C59.0215 54.9923 58.5743 54.997 58.1136 55.0019C57.3853 55.0061 57.3853 55.0061 56.6424 55.0103C56.2723 55.0125 56.2723 55.0125 55.8947 55.0148C54.5884 55.0226 53.2822 55.0279 51.9759 55.0314C50.6282 55.0355 49.2807 55.0482 47.933 55.063C46.8955 55.0727 45.858 55.0758 44.8204 55.0771C44.0826 55.0798 43.3449 55.0896 42.6072 55.0995C42.1565 55.0984 41.7059 55.0974 41.2415 55.0962C40.6479 55.0995 40.6479 55.0995 40.0422 55.1028C38.6987 54.8771 38.077 54.3772 37.1092 53.4375C36.8628 52.6953 36.8628 52.6953 36.8773 51.9531C36.8725 51.7082 36.8677 51.4632 36.8628 51.2109C37.5305 49.1998 39.3257 48.7989 41.2298 48.804Z" fill="#204F4E"/>
</svg>
