<svg width="41" height="41" viewBox="0 0 41 41" fill="none" xmlns="http://www.w3.org/2000/svg">
<path d="M35.5312 34.6429H5.46875C3.54938 34.6429 2 33.0636 2 31.1072V9.89289C2 7.93646 3.54938 6.35718 5.46875 6.35718H35.5312C37.4506 6.35718 39 7.93646 39 9.89289V31.1072C39 33.0636 37.4506 34.6429 35.5312 34.6429ZM5.46875 8.71432C4.82125 8.71432 4.3125 9.23289 4.3125 9.89289V31.1072C4.3125 31.7672 4.82125 32.2857 5.46875 32.2857H35.5312C36.1787 32.2857 36.6875 31.7672 36.6875 31.1072V9.89289C36.6875 9.23289 36.1787 8.71432 35.5312 8.71432H5.46875Z" fill="#FF6A5D"/>
<path d="M20.4999 25.12C18.8812 25.12 17.4012 24.46 16.2912 23.2578L4.15054 10.105C3.71116 9.63355 3.73429 8.87927 4.19679 8.43141C4.65929 7.98355 5.39929 8.00713 5.83866 8.47855L17.9793 21.6314C19.2974 23.0693 21.7024 23.0693 23.0205 21.6314L35.1612 8.50213C35.6005 8.0307 36.3405 8.00713 36.803 8.45498C37.2655 8.90284 37.2887 9.65713 36.8493 10.1286L24.7087 23.2814C23.5987 24.4836 22.1187 25.1436 20.4999 25.1436V25.12Z" fill="#FF6A5D"/>
</svg>
