<svg width="41" height="41" viewBox="0 0 41 41" fill="none" xmlns="http://www.w3.org/2000/svg">
<path d="M35.5312 34.6426H5.46875C3.54938 34.6426 2 33.0634 2 31.1069V9.89265C2 7.93622 3.54938 6.35693 5.46875 6.35693H35.5312C37.4506 6.35693 39 7.93622 39 9.89265V31.1069C39 33.0634 37.4506 34.6426 35.5312 34.6426ZM5.46875 8.71408C4.82125 8.71408 4.3125 9.23265 4.3125 9.89265V31.1069C4.3125 31.7669 4.82125 32.2855 5.46875 32.2855H35.5312C36.1787 32.2855 36.6875 31.7669 36.6875 31.1069V9.89265C36.6875 9.23265 36.1787 8.71408 35.5312 8.71408H5.46875Z" fill="black"/>
<path d="M20.4999 25.1201C18.8812 25.1201 17.4012 24.4601 16.2912 23.258L4.15054 10.1051C3.71116 9.63368 3.73429 8.87939 4.19679 8.43153C4.65929 7.98368 5.39929 8.00725 5.83866 8.47868L17.9793 21.6315C19.2974 23.0694 21.7024 23.0694 23.0205 21.6315L35.1612 8.50225C35.6005 8.03082 36.3405 8.00725 36.803 8.45511C37.2655 8.90296 37.2887 9.65725 36.8493 10.1287L24.7087 23.2815C23.5987 24.4837 22.1187 25.1437 20.4999 25.1437V25.1201Z" fill="black"/>
</svg>
