<svg width="282" height="106" viewBox="0 0 282 106" fill="none" xmlns="http://www.w3.org/2000/svg">
<path d="M68.2671 95.6801C70.5382 94.6973 72.2117 93.7145 73.3141 92.9973C74.536 92.2004 75.2 91.6558 75.5454 91.3503C76.4618 90.5535 77.1657 89.7566 77.4977 89.3714C77.4977 89.3714 77.8165 89.0128 78.1353 88.6011C80.34 85.8651 81.615 83.3017 81.615 83.3017C82.2924 81.9205 82.651 80.8845 83.3549 78.7993C83.833 77.3782 84.1784 76.1695 84.4174 75.293C83.926 75.2797 83.1823 75.2531 82.2924 75.2398C79.8752 75.2 78.2282 75.2398 76.5282 75.2797C75.1602 75.3062 73.1945 75.3195 70.7905 75.3062C69.9538 82.0931 69.1038 88.88 68.2671 95.6669V95.6801Z" fill="#399BA4"/>
<path d="M22.645 74.8284C22.7778 75.9972 23.1497 77.7769 24.3052 79.5566C26.4967 82.9567 30.9061 85.4536 32.5929 84.2849C34.1335 83.2223 33.589 78.9058 31.1718 73.8721C28.3295 74.1909 25.4873 74.5096 22.645 74.8151V74.8284Z" fill="#399BA4"/>
<path d="M67.8422 0H38.1579C33.4633 0 29.6577 3.80566 29.6577 8.50019V97.4999C29.6577 102.194 33.4633 106 38.1579 106H67.8422C72.5367 106 76.3423 102.194 76.3423 97.4999V8.50019C76.3423 3.80566 72.5367 0 67.8422 0Z" fill="#399BA4"/>
<path d="M0 38.1579L0 67.8422C0 72.5367 3.80566 76.3423 8.50019 76.3423H97.4999C102.194 76.3423 106 72.5367 106 67.8422V38.1579C106 33.4634 102.194 29.6577 97.4999 29.6577L8.50019 29.6577C3.80566 29.6577 0 33.4634 0 38.1579Z" fill="#399BA4"/>
<path d="M47.7869 16.7213C47.6009 16.894 47.3353 17.1729 47.1228 17.5714C46.6181 18.5011 46.7111 19.4573 46.7907 20.3074C46.8439 20.8785 46.897 20.7988 47.0963 21.9543C47.2822 22.9902 47.3752 23.7871 47.4283 24.2918C47.6143 25.8989 47.6408 27.0278 47.6408 27.3067C47.6673 28.5021 47.6142 28.9802 47.5877 29.1396C47.4947 29.8037 47.415 30.4146 47.0564 31.0787C46.8704 31.4373 46.3525 32.367 45.3829 32.7256C44.3071 33.1108 43.2579 32.5662 42.1954 32.0084C41.9032 31.849 41.7172 31.7428 39.5922 30.1091C37.7327 28.688 37.7194 28.6614 37.228 28.3161C36.6967 27.9442 36.2319 27.6388 35.1694 26.895C34.0803 26.138 33.9741 26.0317 33.8545 25.9122C33.6819 25.7262 32.7522 24.7168 32.7787 23.4551C32.8053 22.5785 33.3365 21.9277 34.4256 20.666C35.3288 19.6167 35.4616 19.6831 36.9359 18.169C37.6663 17.412 38.4367 16.6284 39.3531 15.4994C40.1367 14.5564 40.2563 14.3174 40.7875 13.8392C41.0664 13.5869 41.7969 12.9759 43.125 12.3915C43.7891 12.0994 45.2899 11.515 47.8532 11.3157C51.3197 11.0501 54.0026 11.7009 54.8394 11.9134C57.8543 12.697 59.9395 13.9588 60.6567 14.9283C61.3739 15.8979 61.6794 16.894 61.6794 16.894C61.7856 17.2393 61.7591 17.2659 61.8388 17.5049C62.1974 18.4878 63.0341 19.0456 63.4724 19.3378C64.2028 19.8027 65.0662 20.0284 66.8193 20.4667C67.6561 20.6792 68.0811 20.7855 68.5194 20.8519C69.7679 21.0378 70.2194 20.8917 71.6405 21.091C72.796 21.2636 73.128 21.4496 73.3538 21.6089C73.4734 21.7019 74.1508 22.1933 74.2969 23.0301C74.3633 23.4152 74.257 23.7738 74.0578 24.4778C73.8187 25.3145 73.5531 25.9122 73.5265 25.952C72.6234 27.9575 72.1718 28.9669 71.8796 29.3521C70.5514 31.1982 68.7186 31.9818 68.2006 32.1943C67.6826 32.4068 66.142 32.978 64.256 32.8584C63.5388 32.8053 63.3794 32.699 62.5294 32.6858C61.0286 32.6592 59.8864 32.978 59.5012 33.0975C58.8371 33.2967 58.0137 33.5491 57.1105 34.1999C56.6855 34.5053 55.5964 35.3288 55.0253 36.7765C54.8394 37.2679 54.7597 37.7327 54.6269 38.6757C54.4941 39.632 54.4675 40.3758 54.4409 41.1992C54.4144 42.1821 54.4409 42.9657 54.4409 43.3907C54.5073 45.2235 54.6003 47.5611 55.2777 50.3104C55.7824 52.3425 55.9949 52.0901 56.3137 53.7503C56.7121 55.8488 56.6324 57.5621 56.5792 58.5715C56.473 60.5372 56.141 61.9849 56.048 62.3435C55.7957 63.406 55.6894 63.4591 54.8925 65.9029C54.2152 67.9616 53.8831 68.9975 53.6175 70.1265C53.0464 72.5835 53.312 72.889 52.8338 73.9914C52.4885 74.8016 51.7846 75.9172 49.4338 77.4711C46.804 79.211 44.4665 80.5259 41.704 81.0704C41.0266 81.2033 40.0968 81.2298 38.2241 81.3228C35.6873 81.4423 33.6155 81.4556 32.2209 81.4291C29.5248 80.7119 27.9575 79.4368 27.1607 78.6665C24.8098 76.3688 24.1723 73.4734 23.309 69.5553C22.7379 66.9787 22.6184 65.0396 22.6051 64.5881C22.4457 61.6528 22.791 59.4746 23.309 56.3668C23.8004 53.3519 24.0527 51.8378 24.7301 50.0315C25.6864 47.4947 27.0676 45.2368 27.9309 43.8157C28.5153 42.8461 28.9802 42.1688 29.9896 40.4687C30.6936 39.2601 31.1717 38.4765 31.7428 37.3741C33.0178 34.9171 33.7749 33.0178 33.9608 32.5529C34.3327 31.61 34.771 30.4279 35.196 29.0466C35.5014 29.0865 35.953 29.1794 36.3515 29.4849C36.6171 29.6841 36.7632 29.8966 36.8031 29.963C37.2679 30.6404 38.264 31.4107 39.1538 32.1014C40.1898 32.9115 41.6508 34.0139 43.7094 34.5186C44.5196 34.7178 44.9978 34.7178 45.3564 34.678C45.6087 34.6514 46.8838 34.4788 47.84 33.4428C48.3049 32.9381 48.4908 32.46 48.8096 31.5435C49.3807 29.9365 49.4737 28.5818 49.5002 28.1435C49.5799 26.6427 49.3541 25.5137 49.1416 24.4379C48.7564 22.5519 48.4642 22.1801 48.1322 20.5199C47.933 19.537 47.7736 18.2753 47.7736 16.7612L47.7869 16.7213Z" fill="#204F4E"/>
<path d="M46.7245 56.8185C47.0831 56.3271 47.5215 55.7162 47.9996 54.8263C48.8629 53.206 49.248 51.7184 49.5136 50.7489C50.0449 48.8098 49.952 48.4777 50.2973 47.1761C50.802 45.2503 51.5855 43.8956 52.502 42.1956C53.3122 40.6947 53.8302 39.765 54.5341 38.822C54.7864 38.4767 54.9989 38.2111 55.1583 38.0251C56.0216 36.3251 56.8185 34.9571 57.4295 33.9477C57.4295 33.9477 57.9873 33.0313 59.0233 31.7695C60.2584 30.2554 60.617 30.189 60.8162 30.2289C61.3608 30.3351 61.5998 31.2781 61.7991 32.1016C61.892 32.4735 62.1577 33.6688 62.0913 35.6478C62.0515 36.7103 61.9585 37.1353 62.2773 37.4939C62.6624 37.9189 63.26 37.8525 63.964 37.9056C65.5577 38.0119 66.7398 38.5963 67.7094 39.0877C69.0641 39.7783 70.3923 40.4557 70.804 41.744C71.0298 42.4479 71.043 43.4573 71.8532 44.7722C71.8798 44.8253 71.9063 44.8651 71.9329 44.8917C72.7962 45.5558 73.6728 46.2066 74.5361 46.8707C74.6291 47.2027 74.7486 47.7074 74.7354 48.3183C74.7088 50.8551 72.6634 52.5286 72.3314 52.8075C71.9197 53.1396 69.6219 54.9591 67.2445 54.5076C66.7266 54.4146 66.0625 54.1755 65.4117 54.5208C64.7476 54.8662 64.5218 55.6099 64.389 55.9685C64.0437 56.9115 64.2164 57.6553 64.7742 60.046C65.425 62.8882 65.5047 63.2867 65.5711 63.6851C65.85 65.2258 65.943 66.3945 65.9961 67.125C66.089 68.4133 66.2484 70.6048 65.9562 73.2213C65.7038 75.3729 65.2656 76.8338 64.4156 79.5964C63.3132 83.1824 62.8617 83.5277 62.4499 85.5333C62.1046 87.22 61.9319 89.4247 62.3835 92.1607C63.1272 91.9881 64.0968 91.6959 65.1992 91.2178C67.0188 90.4341 68.2274 89.531 68.9977 88.9466C69.7016 88.4153 71.7868 86.7684 73.7923 83.9793C74.7885 82.5848 75.3994 81.4027 75.6916 80.8449C76.7541 78.7198 77.219 76.9401 77.5377 75.7315C77.8831 74.39 78.0823 73.2478 78.2018 72.4244C77.7104 72.3314 76.9268 72.1056 76.1033 71.5743C75.7713 71.3618 74.6955 70.6181 73.965 69.1837C73.2744 67.8157 73.3009 66.5805 73.3142 66.0227C73.3541 64.7078 73.7525 63.7117 73.965 63.2601C74.1908 62.782 74.7486 61.5999 76.0635 60.6436C77.4846 59.6077 78.9589 59.435 79.6761 59.4217C80.2472 59.4084 81.6816 59.4217 83.1824 60.2983C85.002 61.3475 85.7989 62.9812 86.1044 63.7781C86.4231 64.6148 86.8614 66.2484 86.3301 68.0415C85.2676 71.6408 81.2964 72.69 81.0706 72.7431C80.9112 73.6596 80.6722 74.8549 80.287 76.2229C79.5433 78.919 78.68 80.8449 78.4808 81.2832C77.7503 82.9035 76.4752 85.6528 73.8853 88.495C71.3751 91.2443 68.8516 92.7451 67.882 93.2897C63.6452 95.6538 59.8069 96.0655 57.2568 96.3046C54.3216 96.5835 49.8058 97.0085 44.7854 94.8569C43.4174 94.2725 40.7479 93.0905 38.2908 90.3943C36.3782 88.2958 35.4087 86.1708 34.9438 84.9223C34.0672 82.6113 33.9211 80.712 33.8547 79.6761C33.6289 76.4752 34.2399 74.0846 34.386 73.54C34.8376 71.84 35.4352 70.6845 36.0329 69.4759C37.5204 66.5274 39.1408 64.6148 39.5127 64.1898C40.0838 63.5257 41.1064 62.5562 43.1518 60.6171C44.6526 59.1959 45.6089 58.3459 46.7245 56.8185Z" fill="white" stroke="#399BA4" stroke-miterlimit="10"/>
<path d="M62.9414 36.6705V34.2931C63.0211 34.1603 63.114 34.0009 63.2469 33.8282C63.4062 33.5892 63.5523 33.4165 63.5922 33.3767C63.8313 33.0845 64.0438 32.8188 64.3625 32.593C64.7079 32.354 65 32.1415 65.3188 32.1946C65.7703 32.2743 66.0227 32.8454 66.1422 33.111C66.7665 34.572 66.2087 36.5509 65.9298 37.3611C65.5047 37.3611 64.9469 37.3213 64.3227 37.1619C63.7648 37.0291 63.3133 36.8431 62.9547 36.6705H62.9414Z" fill="white"/>
<path d="M79.8884 70.6048C82.3897 70.6048 84.4174 68.5771 84.4174 66.0758C84.4174 63.5745 82.3897 61.5468 79.8884 61.5468C77.3871 61.5468 75.3594 63.5745 75.3594 66.0758C75.3594 68.5771 77.3871 70.6048 79.8884 70.6048Z" fill="#399BA4"/>
<path d="M124.966 33.337C126.241 33.337 127.437 33.5893 128.565 34.0807C129.694 34.5722 130.677 35.2362 131.514 36.073C132.351 36.9097 133.015 37.8925 133.506 39.0215C133.998 40.1504 134.237 41.3457 134.237 42.6208C134.237 43.8958 133.998 45.1044 133.506 46.2201C133.015 47.349 132.351 48.3318 131.514 49.1686C130.677 50.0053 129.694 50.6561 128.565 51.1475C127.437 51.6257 126.241 51.8647 124.966 51.8647C123.691 51.8647 122.522 51.6257 121.393 51.1342C120.265 50.6428 119.282 49.9788 118.432 49.1155L120.304 47.2428C120.915 47.8537 121.633 48.3318 122.456 48.6772C123.279 49.0225 124.116 49.1951 124.966 49.1951C125.763 49.1951 126.52 49.0623 127.237 48.7967C127.955 48.5311 128.592 48.1592 129.15 47.6943C129.708 47.2162 130.173 46.6716 130.544 46.0341C130.916 45.3966 131.169 44.706 131.301 43.9357H125.165V41.2661H131.262C131.129 40.5223 130.876 39.8184 130.505 39.1809C130.133 38.5433 129.668 37.9855 129.11 37.5207C128.552 37.0558 127.915 36.6839 127.211 36.4183C126.507 36.1527 125.763 36.0198 124.966 36.0198C124.09 36.0198 123.253 36.1925 122.456 36.5378C121.659 36.8831 120.942 37.3613 120.304 37.9722L118.432 36.0995C119.282 35.223 120.265 34.5456 121.393 34.0675C122.522 33.5893 123.718 33.3503 124.966 33.3503V33.337Z" fill="#204F4E"/>
<path d="M152.459 49.1553C151.609 50.0053 150.613 50.6694 149.471 51.1475C148.328 51.6257 147.133 51.8647 145.885 51.8647C144.636 51.8647 143.401 51.6257 142.272 51.1475C141.143 50.6694 140.16 50.0186 139.324 49.1686C138.487 48.3318 137.836 47.349 137.358 46.2201C136.88 45.0911 136.641 43.8958 136.641 42.6208C136.641 41.3457 136.88 40.1504 137.358 39.0215C137.836 37.8925 138.487 36.9097 139.324 36.073C140.16 35.2362 141.143 34.5722 142.272 34.0807C143.401 33.5893 144.61 33.337 145.885 33.337C147.16 33.337 148.328 33.576 149.471 34.0542C150.613 34.5323 151.609 35.1964 152.459 36.0464L150.546 37.959C149.935 37.348 149.218 36.8699 148.408 36.5245C147.598 36.1792 146.748 36.0066 145.885 36.0066C145.021 36.0066 144.131 36.1792 143.334 36.5245C142.538 36.8699 141.847 37.348 141.236 37.9324C140.638 38.5301 140.16 39.234 139.815 40.0442C139.47 40.8543 139.297 41.7044 139.297 42.6075C139.297 43.5106 139.47 44.3607 139.815 45.1576C140.16 45.9544 140.625 46.6451 141.209 47.256C141.794 47.8537 142.485 48.3186 143.281 48.6639C144.078 49.0092 144.942 49.1819 145.871 49.1819C146.748 49.1819 147.585 49.0225 148.395 48.6772C149.205 48.3318 149.922 47.8803 150.533 47.256L152.446 49.1287L152.459 49.1553Z" fill="#204F4E"/>
<path d="M160.229 42.2621L157.519 44.9716V51.8647H154.85V24.9695H157.519V41.1863L165.448 33.2971H169.194L162.141 40.3496L170.548 51.8647H167.241L160.229 42.2621Z" fill="#204F4E"/>
<path d="M191.427 33.337V55.2117C191.427 56.4867 191.188 57.6953 190.697 58.8243C190.205 59.9532 189.541 60.936 188.704 61.7728C187.868 62.6095 186.885 63.2736 185.756 63.765C184.627 64.2564 183.432 64.4955 182.156 64.4955C180.881 64.4955 179.686 64.2564 178.557 63.765C177.428 63.2736 176.445 62.6095 175.609 61.7728C174.772 60.936 174.121 59.9532 173.643 58.8243C173.165 57.6953 172.926 56.5 172.926 55.2117H175.595C175.595 56.1148 175.768 56.9781 176.113 57.7883C176.459 58.5985 176.937 59.3024 177.534 59.9001C178.132 60.4977 178.823 60.9626 179.633 61.3212C180.43 61.6665 181.28 61.8392 182.183 61.8392C183.086 61.8392 183.936 61.6665 184.733 61.3212C185.53 60.9759 186.221 60.4977 186.832 59.9001C187.429 59.3024 187.894 58.6118 188.239 57.8016C188.585 57.0047 188.757 56.1414 188.757 55.2117V48.5178C188.014 49.5272 187.071 50.3241 185.915 50.9085C184.76 51.4929 183.511 51.785 182.196 51.785C180.881 51.785 179.713 51.546 178.584 51.0678C177.455 50.5897 176.472 49.9256 175.635 49.0889C174.798 48.2522 174.148 47.2693 173.67 46.1404C173.191 45.0115 172.952 43.8161 172.952 42.5411V33.337H175.622V42.5411C175.622 43.4177 175.795 44.2544 176.14 45.0513C176.485 45.8482 176.95 46.5388 177.534 47.1498C178.119 47.7475 178.809 48.2256 179.606 48.5842C180.403 48.9428 181.267 49.1155 182.196 49.1155C183.073 49.1155 183.91 48.9428 184.707 48.5975C185.503 48.2522 186.194 47.7873 186.805 47.2029C187.416 46.6185 187.881 45.9279 188.239 45.131C188.598 44.3341 188.771 43.4708 188.771 42.5411V33.337H191.44H191.427Z" fill="#204F4E"/>
<path d="M214.377 33.3769V51.8648H211.708V36.0465H201.986V41.638C201.986 42.8865 201.787 44.0818 201.375 45.2107C200.963 46.3397 200.392 47.3623 199.662 48.292C198.931 49.2085 198.054 49.9921 197.058 50.6296C196.062 51.2671 194.986 51.7054 193.844 51.9445V49.1553C194.641 48.9428 195.358 48.5975 196.009 48.1061C196.66 47.6147 197.231 47.0436 197.696 46.3795C198.174 45.7154 198.546 44.9849 198.812 44.188C199.077 43.3911 199.237 42.5544 199.29 41.6778V33.3901H214.351L214.377 33.3769Z" fill="#204F4E"/>
<path d="M235.336 33.337V51.8647H232.666V48.5975C231.896 49.6069 230.94 50.4038 229.784 50.9882C228.629 51.5725 227.38 51.8647 226.065 51.8647C224.75 51.8647 223.582 51.6257 222.453 51.1475C221.324 50.6694 220.341 50.0186 219.504 49.1686C218.667 48.3318 218.017 47.349 217.538 46.2201C217.06 45.0911 216.821 43.8958 216.821 42.6208C216.821 41.3457 217.06 40.1504 217.538 39.0215C218.017 37.8925 218.667 36.9097 219.504 36.073C220.341 35.2362 221.324 34.5722 222.453 34.0807C223.582 33.5893 224.79 33.337 226.065 33.337C227.34 33.337 228.629 33.6292 229.784 34.2136C230.94 34.7979 231.896 35.5948 232.666 36.6042V33.337H235.336ZM226.052 49.1951C226.955 49.1951 227.805 49.0225 228.615 48.6772C229.425 48.3318 230.129 47.867 230.727 47.2693C231.325 46.6716 231.79 45.9677 232.148 45.1708C232.493 44.3739 232.666 43.5239 232.666 42.6208C232.666 41.7176 232.493 40.8543 232.148 40.0574C231.803 39.2473 231.325 38.5433 230.727 37.9457C230.129 37.348 229.425 36.8831 228.615 36.5378C227.805 36.1925 226.955 36.0198 226.052 36.0198C225.149 36.0198 224.299 36.1925 223.502 36.5378C222.705 36.8831 222.014 37.3613 221.403 37.9457C220.806 38.5433 220.328 39.2473 219.982 40.0574C219.637 40.8676 219.464 41.7176 219.464 42.6208C219.464 43.5239 219.637 44.3739 219.982 45.1708C220.328 45.9677 220.806 46.6584 221.403 47.2693C222.001 47.8803 222.692 48.3318 223.502 48.6772C224.299 49.0225 225.149 49.1951 226.052 49.1951Z" fill="#204F4E"/>
<path d="M253.664 33.337V51.8647H250.995V36.0066H240.396V51.8647H237.727V33.337H253.664Z" fill="#204F4E"/>
<path d="M123.762 68.3484C124.248 68.4484 124.618 68.645 124.872 68.9384C125.125 69.225 125.252 69.6017 125.252 70.0684C125.252 70.675 125.035 71.1417 124.602 71.4684C124.175 71.795 123.545 71.9584 122.712 71.9584H119.612V64.9584H122.522C123.268 64.9584 123.852 65.1117 124.272 65.4184C124.692 65.725 124.902 66.1684 124.902 66.7484C124.902 67.1417 124.802 67.475 124.602 67.7484C124.402 68.015 124.122 68.215 123.762 68.3484ZM120.342 68.1284H122.482C123.022 68.1284 123.435 68.0184 123.722 67.7984C124.015 67.5784 124.162 67.2584 124.162 66.8384C124.162 66.4184 124.015 66.0984 123.722 65.8784C123.435 65.6584 123.022 65.5484 122.482 65.5484H120.342V68.1284ZM122.712 71.3684C123.918 71.3684 124.522 70.9184 124.522 70.0184C124.522 69.1384 123.918 68.6984 122.712 68.6984H120.342V71.3684H122.712ZM131.532 69.5484H127.132C127.172 70.095 127.382 70.5384 127.762 70.8784C128.142 71.2117 128.622 71.3784 129.202 71.3784C129.529 71.3784 129.829 71.3217 130.102 71.2084C130.375 71.0884 130.612 70.915 130.812 70.6884L131.212 71.1484C130.979 71.4284 130.685 71.6417 130.332 71.7884C129.985 71.935 129.602 72.0084 129.182 72.0084C128.642 72.0084 128.162 71.895 127.742 71.6684C127.329 71.435 127.005 71.115 126.772 70.7084C126.539 70.3017 126.422 69.8417 126.422 69.3284C126.422 68.815 126.532 68.355 126.752 67.9484C126.979 67.5417 127.285 67.225 127.672 66.9984C128.065 66.7717 128.505 66.6584 128.992 66.6584C129.479 66.6584 129.915 66.7717 130.302 66.9984C130.689 67.225 130.992 67.5417 131.212 67.9484C131.432 68.3484 131.542 68.8084 131.542 69.3284L131.532 69.5484ZM128.992 67.2684C128.485 67.2684 128.059 67.4317 127.712 67.7584C127.372 68.0784 127.179 68.4984 127.132 69.0184H130.862C130.815 68.4984 130.619 68.0784 130.272 67.7584C129.932 67.4317 129.505 67.2684 128.992 67.2684ZM136.579 67.3284H134.589V71.9584H133.879V67.3284H131.889V66.6984H136.579V67.3284ZM141.962 69.5484H137.562C137.602 70.095 137.812 70.5384 138.192 70.8784C138.572 71.2117 139.052 71.3784 139.632 71.3784C139.958 71.3784 140.258 71.3217 140.532 71.2084C140.805 71.0884 141.042 70.915 141.242 70.6884L141.642 71.1484C141.408 71.4284 141.115 71.6417 140.762 71.7884C140.415 71.935 140.032 72.0084 139.612 72.0084C139.072 72.0084 138.592 71.895 138.172 71.6684C137.758 71.435 137.435 71.115 137.202 70.7084C136.968 70.3017 136.852 69.8417 136.852 69.3284C136.852 68.815 136.962 68.355 137.182 67.9484C137.408 67.5417 137.715 67.225 138.102 66.9984C138.495 66.7717 138.935 66.6584 139.422 66.6584C139.908 66.6584 140.345 66.7717 140.732 66.9984C141.118 67.225 141.422 67.5417 141.642 67.9484C141.862 68.3484 141.972 68.8084 141.972 69.3284L141.962 69.5484ZM139.422 67.2684C138.915 67.2684 138.488 67.4317 138.142 67.7584C137.802 68.0784 137.608 68.4984 137.562 69.0184H141.292C141.245 68.4984 141.048 68.0784 140.702 67.7584C140.362 67.4317 139.935 67.2684 139.422 67.2684ZM146.253 66.6584C146.747 66.6584 147.193 66.7717 147.593 66.9984C147.993 67.2184 148.307 67.5317 148.533 67.9384C148.76 68.345 148.873 68.8084 148.873 69.3284C148.873 69.855 148.76 70.3217 148.533 70.7284C148.307 71.135 147.993 71.4517 147.593 71.6784C147.2 71.8984 146.753 72.0084 146.253 72.0084C145.827 72.0084 145.44 71.9217 145.093 71.7484C144.753 71.5684 144.473 71.3084 144.253 70.9684V73.8984H143.543V66.6984H144.223V67.7384C144.437 67.3917 144.717 67.125 145.063 66.9384C145.417 66.7517 145.813 66.6584 146.253 66.6584ZM146.203 71.3784C146.57 71.3784 146.903 71.295 147.203 71.1284C147.503 70.955 147.737 70.7117 147.903 70.3984C148.077 70.085 148.163 69.7284 148.163 69.3284C148.163 68.9284 148.077 68.575 147.903 68.2684C147.737 67.955 147.503 67.7117 147.203 67.5384C146.903 67.365 146.57 67.2784 146.203 67.2784C145.83 67.2784 145.493 67.365 145.193 67.5384C144.9 67.7117 144.667 67.955 144.493 68.2684C144.327 68.575 144.243 68.9284 144.243 69.3284C144.243 69.7284 144.327 70.085 144.493 70.3984C144.667 70.7117 144.9 70.955 145.193 71.1284C145.493 71.295 145.83 71.3784 146.203 71.3784ZM150.399 66.6984H151.109V70.8784L154.619 66.6984H155.249V71.9584H154.539V67.7784L151.039 71.9584H150.399V66.6984ZM157.283 66.6984H157.993V69.0284H161.303V66.6984H162.013V71.9584H161.303V69.6384H157.993V71.9584H157.283V66.6984ZM165.841 66.6584C166.528 66.6584 167.055 66.8317 167.421 67.1784C167.788 67.5184 167.971 68.025 167.971 68.6984V71.9584H167.291V71.1384C167.131 71.4117 166.895 71.625 166.581 71.7784C166.275 71.9317 165.908 72.0084 165.481 72.0084C164.895 72.0084 164.428 71.8684 164.081 71.5884C163.735 71.3084 163.561 70.9384 163.561 70.4784C163.561 70.0317 163.721 69.6717 164.041 69.3984C164.368 69.125 164.885 68.9884 165.591 68.9884H167.261V68.6684C167.261 68.215 167.135 67.8717 166.881 67.6384C166.628 67.3984 166.258 67.2784 165.771 67.2784C165.438 67.2784 165.118 67.335 164.811 67.4484C164.505 67.555 164.241 67.705 164.021 67.8984L163.701 67.3684C163.968 67.1417 164.288 66.9684 164.661 66.8484C165.035 66.7217 165.428 66.6584 165.841 66.6584ZM165.591 71.4484C165.991 71.4484 166.335 71.3584 166.621 71.1784C166.908 70.9917 167.121 70.725 167.261 70.3784V69.5184H165.611C164.711 69.5184 164.261 69.8317 164.261 70.4584C164.261 70.765 164.378 71.0084 164.611 71.1884C164.845 71.3617 165.171 71.4484 165.591 71.4484ZM172.572 66.6584C173.065 66.6584 173.512 66.7717 173.912 66.9984C174.312 67.2184 174.625 67.5317 174.852 67.9384C175.078 68.345 175.192 68.8084 175.192 69.3284C175.192 69.855 175.078 70.3217 174.852 70.7284C174.625 71.135 174.312 71.4517 173.912 71.6784C173.518 71.8984 173.072 72.0084 172.572 72.0084C172.145 72.0084 171.758 71.9217 171.412 71.7484C171.072 71.5684 170.792 71.3084 170.572 70.9684V73.8984H169.862V66.6984H170.542V67.7384C170.755 67.3917 171.035 67.125 171.382 66.9384C171.735 66.7517 172.132 66.6584 172.572 66.6584ZM172.522 71.3784C172.888 71.3784 173.222 71.295 173.522 71.1284C173.822 70.955 174.055 70.7117 174.222 70.3984C174.395 70.085 174.482 69.7284 174.482 69.3284C174.482 68.9284 174.395 68.575 174.222 68.2684C174.055 67.955 173.822 67.7117 173.522 67.5384C173.222 67.365 172.888 67.2784 172.522 67.2784C172.148 67.2784 171.812 67.365 171.512 67.5384C171.218 67.7117 170.985 67.955 170.812 68.2684C170.645 68.575 170.562 68.9284 170.562 69.3284C170.562 69.7284 170.645 70.085 170.812 70.3984C170.985 70.7117 171.218 70.955 171.512 71.1284C171.812 71.295 172.148 71.3784 172.522 71.3784ZM176.717 66.6984H177.427V69.0284H180.737V66.6984H181.447V71.9584H180.737V69.6384H177.427V71.9584H176.717V66.6984ZM185.275 66.6584C185.962 66.6584 186.488 66.8317 186.855 67.1784C187.222 67.5184 187.405 68.025 187.405 68.6984V71.9584H186.725V71.1384C186.565 71.4117 186.328 71.625 186.015 71.7784C185.708 71.9317 185.342 72.0084 184.915 72.0084C184.328 72.0084 183.862 71.8684 183.515 71.5884C183.168 71.3084 182.995 70.9384 182.995 70.4784C182.995 70.0317 183.155 69.6717 183.475 69.3984C183.802 69.125 184.318 68.9884 185.025 68.9884H186.695V68.6684C186.695 68.215 186.568 67.8717 186.315 67.6384C186.062 67.3984 185.692 67.2784 185.205 67.2784C184.872 67.2784 184.552 67.335 184.245 67.4484C183.938 67.555 183.675 67.705 183.455 67.8984L183.135 67.3684C183.402 67.1417 183.722 66.9684 184.095 66.8484C184.468 66.7217 184.862 66.6584 185.275 66.6584ZM185.025 71.4484C185.425 71.4484 185.768 71.3584 186.055 71.1784C186.342 70.9917 186.555 70.725 186.695 70.3784V69.5184H185.045C184.145 69.5184 183.695 69.8317 183.695 70.4584C183.695 70.765 183.812 71.0084 184.045 71.1884C184.278 71.3617 184.605 71.4484 185.025 71.4484ZM193.335 66.6984V71.9584H192.685V70.2184H191.035H190.835L189.615 71.9584H188.845L190.155 70.1184C189.748 70.005 189.435 69.8117 189.215 69.5384C188.995 69.265 188.885 68.9184 188.885 68.4984C188.885 67.9117 189.085 67.465 189.485 67.1584C189.885 66.8517 190.432 66.6984 191.125 66.6984H193.335ZM189.605 68.5184C189.605 69.2984 190.102 69.6884 191.095 69.6884H192.685V67.3284H191.145C190.118 67.3284 189.605 67.725 189.605 68.5184ZM199.887 69.6184H198.687V71.9584H197.977V66.6984H198.687V69.0084H199.897L201.747 66.6984H202.517L200.447 69.2484L202.667 71.9584H201.827L199.887 69.6184ZM208.087 66.6984V71.9584H207.377V67.3284H204.857L204.787 68.6284C204.734 69.7217 204.607 70.5617 204.407 71.1484C204.207 71.735 203.851 72.0284 203.337 72.0284C203.197 72.0284 203.027 72.0017 202.827 71.9484L202.877 71.3384C202.997 71.365 203.081 71.3784 203.127 71.3784C203.401 71.3784 203.607 71.2517 203.747 70.9984C203.887 70.745 203.981 70.4317 204.027 70.0584C204.074 69.685 204.114 69.1917 204.147 68.5784L204.237 66.6984H208.087ZM210.106 66.6984H210.816V70.8784L214.326 66.6984H214.956V71.9584H214.246V67.7784L210.746 71.9584H210.106V66.6984ZM216.99 66.6984H217.7V69.0284H221.01V66.6984H221.72V71.9584H221.01V69.6384H217.7V71.9584H216.99V66.6984ZM223.739 66.6984H224.449V70.8784L227.959 66.6984H228.589V71.9584H227.879V67.7784L224.379 71.9584H223.739V66.6984ZM232.533 69.6184H231.333V71.9584H230.623V66.6984H231.333V69.0084H232.543L234.393 66.6984H235.163L233.093 69.2484L235.313 71.9584H234.473L232.533 69.6184ZM238.146 66.6584C238.833 66.6584 239.36 66.8317 239.726 67.1784C240.093 67.5184 240.276 68.025 240.276 68.6984V71.9584H239.596V71.1384C239.436 71.4117 239.2 71.625 238.886 71.7784C238.58 71.9317 238.213 72.0084 237.786 72.0084C237.2 72.0084 236.733 71.8684 236.386 71.5884C236.04 71.3084 235.866 70.9384 235.866 70.4784C235.866 70.0317 236.026 69.6717 236.346 69.3984C236.673 69.125 237.19 68.9884 237.896 68.9884H239.566V68.6684C239.566 68.215 239.44 67.8717 239.186 67.6384C238.933 67.3984 238.563 67.2784 238.076 67.2784C237.743 67.2784 237.423 67.335 237.116 67.4484C236.81 67.555 236.546 67.705 236.326 67.8984L236.006 67.3684C236.273 67.1417 236.593 66.9684 236.966 66.8484C237.34 66.7217 237.733 66.6584 238.146 66.6584ZM237.896 71.4484C238.296 71.4484 238.64 71.3584 238.926 71.1784C239.213 70.9917 239.426 70.725 239.566 70.3784V69.5184H237.916C237.016 69.5184 236.566 69.8317 236.566 70.4584C236.566 70.765 236.683 71.0084 236.916 71.1884C237.15 71.3617 237.476 71.4484 237.896 71.4484Z" fill="#204F4E"/>
</svg>
