<svg width="38" height="37" viewBox="0 0 38 37" fill="none" xmlns="http://www.w3.org/2000/svg">
<path fill-rule="evenodd" clip-rule="evenodd" d="M18.9011 32.879C18.7945 32.924 18.6887 32.9705 18.5816 33.0132C17.9781 33.2506 17.3541 33.33 16.7135 33.2283C15.6076 33.0514 14.6956 32.5337 13.9935 31.6574C13.7331 31.3285 13.518 30.966 13.3541 30.5798C13.1604 30.1279 13.0271 29.6525 12.9576 29.1659C12.844 28.3857 12.8747 27.61 13.0193 26.8362C13.129 26.2553 13.2985 25.6873 13.5251 25.1413C13.734 24.6279 13.9011 24.0985 14.0248 23.5583C14.1853 22.8782 14.2927 22.1893 14.3947 21.4985C14.4843 20.8884 14.5672 20.2777 14.6839 19.673C14.767 19.2163 14.8827 18.7661 15.0301 18.3259C15.2199 17.777 15.4766 17.2642 15.8606 16.8208C16.1462 16.4908 16.4902 16.2164 16.8754 16.0114C17.3124 15.7766 17.7781 15.5998 18.2608 15.4853C18.9909 15.315 19.7531 15.342 20.4694 15.5634C20.9695 15.7138 21.4392 15.9334 21.8968 16.1796C22.3831 16.4407 22.8534 16.7285 23.3293 17.0071C23.8657 17.3204 24.4086 17.6214 24.9746 17.8794C25.5379 18.1363 26.1228 18.3426 26.7225 18.4961C27.4473 18.6787 28.1466 18.9507 28.8043 19.3057C29.3678 19.6089 29.8868 19.9882 30.3468 20.4329C30.7053 20.7796 31.0137 21.1744 31.2632 21.6062C31.6426 22.2672 31.854 22.9762 31.8546 23.7431C31.8554 24.4535 31.6728 25.1178 31.3372 25.7404C31.0902 26.199 30.7809 26.6091 30.3849 26.9504C30.2451 27.072 30.0964 27.183 29.9401 27.2825C29.9185 27.2964 29.8978 27.3111 29.8779 27.3267C29.8624 27.3493 29.8343 27.352 29.8127 27.3661C29.7954 27.3787 29.7719 27.3804 29.7597 27.4006L29.3375 27.6142C29.3148 27.611 29.3 27.6287 29.2812 27.6357L29.1919 27.6809C28.826 27.8513 28.4388 27.9531 28.0491 28.0485C27.3895 28.2093 26.7192 28.3211 26.0562 28.4689C25.5192 28.5845 24.9907 28.7368 24.4745 28.9247C24.1191 29.0597 23.7743 29.2209 23.4428 29.407C23.1772 29.553 22.9292 29.731 22.688 29.9151C22.2129 30.2798 21.7697 30.6808 21.3259 31.0821C20.8572 31.5075 20.3877 31.9315 19.8761 32.305C19.6678 32.4565 19.4569 32.6029 19.2249 32.7177C19.177 32.7407 19.1337 32.7716 19.0852 32.7948C19.0222 32.8222 18.968 32.8631 18.9009 32.8798M17.4887 4.25686C18.2936 3.96423 19.0691 4.05661 19.82 4.44069C20.3344 4.70426 20.7624 5.07558 21.1338 5.51591C21.4503 5.89506 21.7153 6.31442 21.9218 6.76307C22.3038 7.57992 22.5088 8.46827 22.5235 9.36991C22.541 9.99678 22.4485 10.6219 22.2502 11.2168C22.0693 11.749 21.8059 12.2345 21.4212 12.6488C21.1507 12.9394 20.84 13.1734 20.4753 13.3311C19.8447 13.606 19.2008 13.6257 18.5486 13.4216C17.9917 13.2474 17.5154 12.9364 17.0936 12.5395C16.8014 12.2615 16.5428 11.9502 16.3233 11.6119C16.1715 11.3814 16.0366 11.1401 15.9196 10.8901C15.6442 10.3002 15.4622 9.68319 15.3736 9.03894C15.2738 8.35887 15.294 7.66658 15.4331 6.99346C15.5545 6.4235 15.7621 5.88814 16.0909 5.40409C16.3282 5.04879 16.6341 4.74459 16.9908 4.50943C16.9992 4.49687 17.0135 4.49348 17.0247 4.48652L17.0609 4.46821C17.0777 4.45714 17.1002 4.45601 17.1098 4.43577L17.3586 4.30987C17.3809 4.31462 17.3948 4.29667 17.4132 4.28993L17.4499 4.27136C17.4616 4.26542 17.4731 4.25643 17.4887 4.25686ZM4.56337 22.0549C4.45797 21.8175 4.38471 21.5689 4.33213 21.3144C4.23035 20.8196 4.22262 20.3259 4.35188 19.8346C4.48603 19.2971 4.79674 18.8201 5.23422 18.4801C5.59779 18.1962 6.01353 18.0281 6.46652 17.9513C6.98742 17.8619 7.50534 17.897 8.01553 18.0257C8.8064 18.2243 9.49799 18.6115 10.1103 19.1444C10.4311 19.424 10.7139 19.7378 10.9586 20.0857C11.0772 20.2543 11.1826 20.4309 11.2801 20.6134C11.4645 20.9565 11.6014 21.3231 11.6868 21.7032C11.7994 22.213 11.8123 22.722 11.6803 23.2306C11.5398 23.801 11.2005 24.3027 10.7234 24.6454C10.3648 24.9062 9.95919 25.0576 9.52252 25.1262C8.93493 25.2179 8.35913 25.1558 7.79328 24.9842C7.24705 24.8164 6.73385 24.5557 6.2762 24.2135C5.82388 23.8815 5.42701 23.4799 5.10033 23.0237L4.93099 22.7776C4.90143 22.742 4.88462 22.6986 4.8543 22.664C4.84119 22.6495 4.83575 22.6324 4.82646 22.6153C4.81283 22.596 4.8109 22.5681 4.78707 22.5539L4.6235 22.2307C4.62893 22.1908 4.60222 22.1633 4.58827 22.1307C4.57844 22.1062 4.55942 22.0838 4.56337 22.0549ZM7.27263 14.1793C6.95062 13.5366 6.74958 12.9127 6.68251 12.2473C6.6313 11.7449 6.65907 11.248 6.80113 10.7605C6.95296 10.2341 7.21911 9.77792 7.63521 9.4156C8.0513 9.05328 8.53767 8.85008 9.08296 8.78359C9.56415 8.72583 10.0359 8.77851 10.4993 8.91225C11.2379 9.12517 11.8829 9.50771 12.4596 10.0107C12.8259 10.3304 13.1492 10.6888 13.4294 11.0858C13.5888 11.3104 13.7334 11.5447 13.8632 11.7885C14.0266 12.0954 14.1616 12.4165 14.2667 12.748C14.4841 13.4423 14.5688 14.1487 14.4481 14.872C14.379 15.3184 14.2111 15.7436 13.9564 16.1166C13.673 16.5306 13.2738 16.852 12.8088 17.0406C12.3821 17.2174 11.9347 17.2748 11.4753 17.244C10.8764 17.2044 10.3169 17.0252 9.78654 16.7491C9.16455 16.4206 8.60858 15.98 8.14657 15.4496C7.88988 15.16 7.66048 14.8473 7.4613 14.5155C7.39216 14.4071 7.32917 14.2948 7.27263 14.1793ZM30.2234 9.54363L30.2611 9.61808C30.546 10.2507 30.6747 10.9164 30.6887 11.606C30.6999 12.1446 30.6283 12.6818 30.4763 13.1986C30.2789 13.8653 29.9631 14.4676 29.482 14.9762C29.1991 15.2813 28.8575 15.5261 28.4775 15.6958C27.9275 15.945 27.3062 15.988 26.7271 15.8168C26.2337 15.6745 25.8189 15.4028 25.4609 15.0422C25.1428 14.7198 24.8834 14.3443 24.6946 13.9326C24.2701 13.0254 24.1413 12.071 24.2549 11.0805C24.2926 10.7462 24.3645 10.4167 24.4695 10.0971C24.6861 9.44057 25.0165 8.85326 25.5123 8.36354C25.7896 8.08595 26.1181 7.86488 26.4798 7.71262C27.0225 7.4818 27.6292 7.44913 28.1936 7.62034C28.7179 7.77576 29.1515 8.07575 29.5219 8.47239C29.7266 8.69093 29.9034 8.93133 30.0475 9.19462L30.0854 9.26958C30.1288 9.3622 30.1745 9.45377 30.2234 9.54363Z" fill="#399BA4"/>
</svg>
