<svg width="38" height="37" viewBox="0 0 38 37" fill="none" xmlns="http://www.w3.org/2000/svg">
<path fill-rule="evenodd" clip-rule="evenodd" d="M18.8049 32.879C18.9115 32.924 19.0174 32.9705 19.1245 33.0132C19.728 33.2506 20.3519 33.33 20.9926 33.2283C22.0985 33.0514 23.0104 32.5337 23.7126 31.6574C23.973 31.3285 24.1881 30.966 24.352 30.5798C24.5456 30.1279 24.679 29.6525 24.7485 29.1659C24.8621 28.3857 24.8313 27.61 24.6868 26.8362C24.5771 26.2553 24.4076 25.6873 24.181 25.1413C23.972 24.6279 23.8049 24.0985 23.6813 23.5583C23.5207 22.8782 23.4134 22.1893 23.3114 21.4985C23.2218 20.8884 23.1389 20.2777 23.0222 19.673C22.9391 19.2163 22.8234 18.7661 22.6759 18.3259C22.4861 17.777 22.2295 17.2642 21.8454 16.8208C21.5599 16.4908 21.2159 16.2164 20.8307 16.0114C20.3937 15.7766 19.928 15.5998 19.4453 15.4853C18.7152 15.315 17.9529 15.342 17.2367 15.5634C16.7366 15.7138 16.2669 15.9334 15.8093 16.1796C15.323 16.4407 14.8527 16.7285 14.3768 17.0071C13.8404 17.3204 13.2974 17.6214 12.7314 17.8794C12.1682 18.1363 11.5833 18.3426 10.9835 18.4961C10.2588 18.6787 9.55951 18.9507 8.90177 19.3057C8.33829 19.6089 7.81923 19.9882 7.35922 20.4329C7.00078 20.7796 6.69235 21.1744 6.44281 21.6062C6.06348 22.2672 5.85206 22.9762 5.85146 23.7431C5.85061 24.4535 6.03322 25.1178 6.36885 25.7404C6.61582 26.199 6.92512 26.6091 7.32113 26.9504C7.46093 27.072 7.60963 27.183 7.76599 27.2825C7.78757 27.2964 7.80828 27.3111 7.82814 27.3267C7.84362 27.3493 7.87172 27.352 7.89337 27.3661C7.91069 27.3787 7.93419 27.3804 7.94636 27.4006L8.36853 27.6142C8.3913 27.611 8.40603 27.6287 8.42491 27.6357L8.51414 27.6809C8.88004 27.8513 9.26723 27.9531 9.657 28.0485C10.3166 28.2093 10.9869 28.3211 11.6498 28.4689C12.1869 28.5845 12.7154 28.7368 13.2316 28.9247C13.587 29.0597 13.9318 29.2209 14.2632 29.407C14.5288 29.553 14.7769 29.731 15.018 29.9151C15.4931 30.2798 15.9364 30.6808 16.3802 31.0821C16.8489 31.5075 17.3183 31.9315 17.8299 32.305C18.0383 32.4565 18.2492 32.6029 18.4812 32.7177C18.5291 32.7407 18.5724 32.7716 18.6208 32.7948C18.6838 32.8222 18.7381 32.8631 18.8052 32.8798M20.2174 4.25686C19.4125 3.96423 18.637 4.05661 17.8861 4.44069C17.3717 4.70426 16.9436 5.07558 16.5723 5.51591C16.2558 5.89506 15.9908 6.31442 15.7843 6.76307C15.4023 7.57992 15.1972 8.46827 15.1825 9.36991C15.1651 9.99678 15.2576 10.6219 15.4558 11.2168C15.6368 11.749 15.9002 12.2345 16.2849 12.6488C16.5554 12.9394 16.8661 13.1734 17.2307 13.3311C17.8614 13.606 18.5053 13.6257 19.1574 13.4216C19.7144 13.2474 20.1907 12.9364 20.6124 12.5395C20.9047 12.2615 21.1632 11.9502 21.3828 11.6119C21.5346 11.3814 21.6695 11.1401 21.7864 10.8901C22.0618 10.3002 22.2438 9.68319 22.3325 9.03894C22.4322 8.35887 22.4121 7.66658 22.273 6.99346C22.1515 6.4235 21.944 5.88814 21.6151 5.40409C21.3779 5.04879 21.0719 4.74459 20.7153 4.50943C20.7069 4.49687 20.6926 4.49348 20.6814 4.48652L20.6452 4.46821C20.6284 4.45714 20.6059 4.45601 20.5963 4.43577L20.3475 4.30987C20.3252 4.31462 20.3112 4.29667 20.2929 4.28993L20.2562 4.27136C20.2444 4.26542 20.233 4.25643 20.2174 4.25686ZM33.1427 22.0549C33.2481 21.8175 33.3213 21.5689 33.3739 21.3144C33.4757 20.8196 33.4834 20.3259 33.3542 19.8346C33.22 19.2971 32.9093 18.8201 32.4718 18.4801C32.1083 18.1962 31.6925 18.0281 31.2395 17.9513C30.7186 17.8619 30.2007 17.897 29.6905 18.0257C28.8997 18.2243 28.2081 18.6115 27.5958 19.1444C27.275 19.424 26.9922 19.7378 26.7474 20.0857C26.6288 20.2543 26.5234 20.4309 26.426 20.6134C26.2415 20.9565 26.1047 21.3231 26.0193 21.7032C25.9067 22.213 25.8938 22.722 26.0258 23.2306C26.1663 23.801 26.5056 24.3027 26.9827 24.6454C27.3413 24.9062 27.7469 25.0576 28.1835 25.1262C28.7711 25.2179 29.3469 25.1558 29.9128 24.9842C30.459 24.8164 30.9722 24.5557 31.4299 24.2135C31.8822 23.8815 32.2791 23.4799 32.6057 23.0237L32.7751 22.7776C32.8046 22.742 32.8214 22.6986 32.8518 22.664C32.8649 22.6495 32.8703 22.6324 32.8796 22.6153C32.8932 22.596 32.8952 22.5681 32.919 22.5539L33.0826 22.2307C33.0771 22.1908 33.1038 22.1633 33.1178 22.1307C33.1276 22.1062 33.1466 22.0838 33.1427 22.0549ZM30.4334 14.1793C30.7554 13.5366 30.9565 12.9127 31.0236 12.2473C31.0748 11.7449 31.047 11.248 30.9049 10.7605C30.7531 10.2341 30.487 9.77792 30.0709 9.4156C29.6548 9.05328 29.1684 8.85008 28.6231 8.78359C28.1419 8.72583 27.6702 8.77851 27.2067 8.91225C26.4682 9.12517 25.8231 9.50771 25.2465 10.0107C24.8802 10.3304 24.5569 10.6888 24.2766 11.0858C24.1173 11.3104 23.9727 11.5447 23.8429 11.7885C23.6795 12.0954 23.5444 12.4165 23.4394 12.748C23.2219 13.4423 23.1373 14.1487 23.258 14.872C23.327 15.3184 23.495 15.7436 23.7496 16.1166C24.0331 16.5306 24.4322 16.852 24.8972 17.0406C25.3239 17.2174 25.7714 17.2748 26.2308 17.244C26.8297 17.2044 27.3892 17.0252 27.9195 16.7491C28.5415 16.4206 29.0975 15.98 29.5595 15.4496C29.8162 15.16 30.0456 14.8473 30.2448 14.5155C30.3139 14.4071 30.3769 14.2948 30.4334 14.1793ZM7.48263 9.54363L7.44496 9.61808C7.16006 10.2507 7.0314 10.9164 7.01736 11.606C7.00615 12.1446 7.07779 12.6818 7.22977 13.1986C7.42719 13.8653 7.74299 14.4676 8.22406 14.9762C8.50694 15.2813 8.84861 15.5261 9.22852 15.6958C9.77854 15.945 10.3999 15.988 10.979 15.8168C11.4724 15.6745 11.8872 15.4028 12.2451 15.0422C12.5633 14.7198 12.8226 14.3443 13.0115 13.9326C13.436 13.0254 13.5647 12.071 13.4511 11.0805C13.4135 10.7462 13.3416 10.4167 13.2366 10.0971C13.0199 9.44057 12.6895 8.85326 12.1938 8.36354C11.9165 8.08595 11.5879 7.86488 11.2263 7.71262C10.6835 7.4818 10.0769 7.44913 9.51249 7.62034C8.98812 7.77576 8.55455 8.07575 8.18414 8.47239C7.97942 8.69093 7.8027 8.93133 7.65859 9.19462L7.62066 9.26958C7.57721 9.3622 7.53152 9.45377 7.48263 9.54363Z" fill="#399BA4"/>
</svg>
