<svg width="41" height="41" viewBox="0 0 41 41" fill="none" xmlns="http://www.w3.org/2000/svg">
<path d="M26.2999 24.5636C22.4415 28.6236 12.5996 18.8699 16.4726 14.7937C18.8376 12.3045 16.1665 9.46088 14.6876 7.36803C11.9117 3.44494 5.8204 8.86154 6.00406 12.3077C6.58887 23.1764 18.3446 36.0558 29.7282 34.9312C33.2886 34.58 37.3806 28.1483 33.2966 25.7977C31.2538 24.6216 28.449 22.3016 26.2999 24.562M23.7222 6.00018C26.7132 6.00018 29.5816 7.18839 31.6965 9.3034C33.8114 11.4184 34.9995 14.287 34.9995 17.2781M23.7222 12.4447C25.0041 12.4447 26.2334 12.9539 27.1398 13.8604C28.0462 14.7668 28.5554 15.9962 28.5554 17.2781" stroke="#FF6A5D" stroke-width="2.5" stroke-linecap="round" stroke-linejoin="round"/>
</svg>
