<svg width="37" height="34" viewBox="0 0 37 34" fill="none" xmlns="http://www.w3.org/2000/svg">
<path d="M18.4734 23.0585L24.1469 29.6114C26.2469 32.038 27.2987 33.2522 28.3994 32.9554C29.4984 32.6602 29.8764 31.0638 30.6307 27.8691L34.8132 10.1483C35.977 5.22744 36.558 2.76878 35.2665 1.55456C33.9749 0.34034 31.7367 1.24345 27.2602 3.04789L6.49457 11.4265C2.91405 12.8719 1.1238 13.5936 1.01005 14.8345C0.996651 14.961 0.996651 15.0885 1.01005 15.215C1.1203 16.4576 2.90705 17.1847 6.48407 18.6407C8.10283 19.3003 8.91308 19.6309 9.49409 20.2621C9.55942 20.3332 9.62242 20.4066 9.68309 20.4825C10.2186 21.1581 10.4461 22.0469 10.9028 23.8176L11.7586 27.1367C12.2013 28.8611 12.4236 29.7251 13.0064 29.8425C13.5891 29.9598 14.0949 29.2451 15.1081 27.814L18.4734 23.0585ZM18.4734 23.0585L17.9186 22.4718C17.2851 21.7998 16.9684 21.4656 16.9684 21.0496C16.9684 20.6336 17.2834 20.2976 17.9186 19.6274L24.1714 13.007" stroke="#1B4F4E" stroke-width="2" stroke-linecap="round" stroke-linejoin="round"/>
</svg>
