<svg width="44" height="29" viewBox="0 0 44 29" fill="none" xmlns="http://www.w3.org/2000/svg">
<path d="M0 3.98964C0 2.35947 1.13043 1.71598 2.52174 1.63018L9 1.67308C9.3913 1.67308 9.73913 1.93047 9.86957 2.31657C11.3478 7.0355 13.1739 9.95266 15.3478 13.2559C15.4783 13.5133 15.6957 13.642 15.913 13.642C16.087 13.642 16.2609 13.5562 16.3913 13.3417L16.5217 12.8698L16.5652 5.44822C16.5652 4.37574 16.0435 4.20414 14.8261 4.03254C14.3478 3.94675 14.0435 3.51775 14.0435 3.08876C14.0435 3.00296 14.0435 2.91716 14.087 2.83136C14.6957 0.986686 16.6087 0.0428994 19.3043 0.0428994L21.7391 0C23.7391 0 25.5652 0.857988 25.5652 3.38905V13.1272C25.7391 13.2559 25.913 13.3417 26.1304 13.3417C26.4783 13.3417 26.913 13.1272 27.2609 12.5695C29.5217 9.43787 32.087 5.70562 32.4348 3.73225C32.4348 3.64645 32.4783 3.60355 32.5217 3.51775C33 2.57396 34.2174 1.93047 34.7391 1.75888C34.8261 1.71598 34.9565 1.67308 35.1304 1.67308H41.8696L42.3043 1.71598C42.9565 1.71598 43.4348 2.14497 43.6522 2.53107C44.0435 3.13166 43.9565 3.77515 44 4.03254V4.33284C43.3478 8.23669 38.8261 12.6124 36.913 15.4438C36.6522 15.787 36.5217 16.0873 36.5217 16.3876C36.5217 16.645 36.6522 16.9024 36.8696 17.1598L43.2174 25.0533C43.5652 25.5251 43.7391 26.0828 43.7391 26.5547C43.7391 27.9704 42.3913 28.7855 41.087 28.9142L40.3478 28.9571H33.7391C33.6087 28.9571 33.5217 29 33.3913 29C32.6522 29 32.0435 28.6139 31.6087 28.1849C30.2174 26.5118 28.8696 24.7959 27.5217 23.1228C27.2609 22.7796 27.1739 22.7367 26.913 22.5651C26.6087 23.8092 26.3478 25.0962 26.0435 26.3831L25.913 27.1124C25.6957 27.8846 25.1304 28.6997 24.087 28.9142L23.4783 28.9571H19.2174C11.6957 28.9571 4.95652 18.4038 0.217391 5.23373C0.0869565 4.89053 0 4.41864 0 3.98964ZM26.1304 15.1006C25 15.1006 23.7391 14.4571 23.7391 13.2559V3.38905C23.7391 2.23077 23.2174 1.80178 21.7826 1.80178L19.3043 1.88757C17.913 1.88757 17.1304 2.10207 16.4783 2.53107C17.4783 3.00296 18.3913 3.64645 18.3913 5.44822V12.9985C18.2609 14.5 17 15.4867 15.7826 15.4867C14.9565 15.4867 14.2174 15.0148 13.7826 14.2426C11.8261 11.3254 10.1739 8.57988 8.73913 4.63314L8.34783 3.51775L2.56522 3.47485C1.78261 3.47485 1.86957 3.51775 1.86957 3.90385C1.86957 4.16124 1.91304 4.50444 1.95652 4.71893L2.86957 7.1213C7.6087 19.2189 13.5652 27.1553 19.2174 27.1553H23.5652C24.1739 27.1553 24.1304 26.426 24.2609 25.997L25.087 22.2219C25.2609 21.8358 25.3913 21.4926 25.6957 21.1923C26.0435 20.8491 26.4348 20.7204 26.8261 20.7204C27.6522 20.7204 28.4348 21.3639 28.9565 21.9645L32.6522 26.5976C32.9565 27.0695 33.2174 27.1553 33.3913 27.1553H40.5652C41.2609 27.1553 41.8696 26.9408 41.8696 26.5118C41.8696 26.3831 41.8261 26.2115 41.7391 26.0828L35.4348 18.318C34.913 17.6746 34.6957 17.0311 34.6957 16.3876C34.6957 15.7012 34.9565 15.0148 35.3913 14.4142C37.2174 11.7115 41.1304 7.85059 42.0435 4.67604L42.1739 4.11834C42.1304 3.90385 42.1304 3.73225 42.087 3.51775H35.2609C34.8261 3.68935 34.4783 3.94675 34.2174 4.28994L33.9565 5.10503C32.9565 7.85059 30.2174 11.6257 28.2609 14.2426C27.6087 14.8432 26.8696 15.1006 26.1304 15.1006Z" fill="#1B4F4E"/>
</svg>
